<svg aria-hidden="true" style="position: absolute; width: 0; height: 0; overflow: hidden;" version="1.1" xmlns="http://www.w3.org/2000/svg" xmlns:xlink="http://www.w3.org/1999/xlink">
<defs>
<symbol id="icon-bouquet-icon" viewBox="0 0 32 32">
<path fill="#ae7c78" style="fill: var(--color1, #ae7c78)" d="M21.971 8.553c0.13 0 0.261-0.010 0.392-0.031 0.652-0.103 1.225-0.455 1.613-0.989l2.355-3.243c0.095-0.131 0.116-0.303 0.054-0.453s-0.197-0.258-0.357-0.285c-0.042-0.007-0.965-0.159-2.093-0.171-0.361-1.068-0.79-1.9-0.81-1.938-0.075-0.144-0.219-0.239-0.381-0.251s-0.319 0.060-0.414 0.192l-2.355 3.243c-0.388 0.534-0.545 1.188-0.441 1.84 0.077 0.483 0.289 0.922 0.611 1.276-0.357 0.424-0.984 1.195-1.673 2.154v-0.41c0-0.259-0.21-0.469-0.469-0.469s-0.469 0.21-0.469 0.469v1.791c-0.376 0.589-0.743 1.212-1.067 1.844v-2.632c0-0 0-0 0-0v-0.808l1.366-1.366c0.183-0.183 0.183-0.48 0-0.663s-0.48-0.183-0.663 0l-0.703 0.703v-1.451c1.14-0.22 2.004-1.224 2.004-2.428v-4.008c0-0.162-0.084-0.313-0.222-0.399s-0.311-0.093-0.456-0.021c-0.038 0.019-0.874 0.439-1.794 1.092-0.92-0.652-1.756-1.073-1.794-1.092-0.145-0.073-0.318-0.065-0.456 0.021s-0.222 0.236-0.222 0.399v4.008c0 1.203 0.864 2.208 2.004 2.428v2.453l-1.204-1.204c-0.183-0.183-0.48-0.183-0.663 0s-0.183 0.48 0 0.663l1.867 1.867v2.438c-1.196-2.333-2.969-4.539-3.677-5.379 0.322-0.353 0.535-0.793 0.611-1.276 0.103-0.652-0.053-1.306-0.442-1.84l-2.355-3.243c-0.095-0.131-0.252-0.204-0.414-0.192s-0.306 0.107-0.381 0.251c-0.020 0.038-0.449 0.869-0.81 1.938-1.127 0.013-2.052 0.164-2.093 0.171-0.16 0.027-0.295 0.134-0.357 0.285s-0.041 0.322 0.054 0.453l2.355 3.243c0.388 0.534 0.961 0.886 1.614 0.989 0.131 0.021 0.262 0.031 0.393 0.031 0.373 0 0.738-0.085 1.072-0.248 0.145 0.172 0.345 0.415 0.582 0.713h-0.412c-0.259 0-0.469 0.21-0.469 0.469s0.21 0.469 0.469 0.469h1.132c0.685 0.921 1.479 2.080 2.124 3.275-0.762-0.749-1.61-1.421-2.535-2.010-2.807-1.786-5.336-2.181-5.443-2.197-0.135-0.020-0.272 0.019-0.375 0.108s-0.163 0.219-0.163 0.355c0 0.075 0.010 1.864 0.904 4.354 0.807 2.249 2.522 5.515 6.11 8.396v1.718l-1.988 7.456c-0.038 0.141-0.008 0.291 0.081 0.406s0.226 0.183 0.372 0.183h9.018c0.146 0 0.283-0.068 0.372-0.183s0.119-0.266 0.081-0.406l-1.988-7.456v-1.718c3.587-2.881 5.302-6.147 6.11-8.396 0.894-2.491 0.904-4.279 0.904-4.354 0-0.136-0.059-0.266-0.163-0.355s-0.24-0.129-0.375-0.108c-0.062 0.009-1.543 0.238-3.493 1.136-1.278 0.588-2.936 1.556-4.489 3.080 0.646-1.198 1.442-2.36 2.128-3.283h1.132c0.259 0 0.469-0.21 0.469-0.469s-0.21-0.469-0.469-0.469h-0.411c0.237-0.298 0.437-0.54 0.581-0.713 0.335 0.163 0.7 0.248 1.073 0.248zM25.106 4.383l-0.708 0.975c-0.033-0.321-0.094-0.664-0.184-1.032 0.33 0.011 0.636 0.033 0.892 0.058zM7.602 5.357l-0.708-0.975c0.256-0.024 0.562-0.046 0.892-0.057-0.090 0.368-0.151 0.711-0.184 1.032zM10.926 7.322c-0.332 0.241-0.738 0.338-1.143 0.274s-0.761-0.282-1.002-0.614c-0.672-0.926 0.041-3.113 0.596-4.405l1.888 2.6c0.497 0.685 0.345 1.647-0.34 2.144zM17.535 1.265v1.203c-0.215-0.239-0.467-0.481-0.756-0.725 0.274-0.185 0.534-0.347 0.756-0.478zM14.464 4.477v-3.214c1.208 0.719 3.071 2.070 3.071 3.214 0 0.847-0.689 1.535-1.535 1.535s-1.535-0.689-1.535-1.535zM7.813 13.565c-0.555-1.533-0.753-2.796-0.824-3.492 0.874 0.213 2.63 0.749 4.501 1.94 1.55 0.986 2.865 2.22 3.911 3.668 1.21 1.675 2.060 3.646 2.533 5.864h-1.092c-0.599-2.63-1.779-4.868-3.511-6.657-0.18-0.186-0.477-0.191-0.663-0.011s-0.191 0.477-0.011 0.663c1.565 1.617 2.646 3.635 3.221 6.005h-2.219c-3.434-2.741-5.074-5.846-5.846-7.979zM18.036 22.481v1.067h-4.073v-1.067h4.073zM19.899 31.062h-1.986l-0.079-0.595c-0.034-0.257-0.27-0.437-0.527-0.403s-0.437 0.27-0.403 0.527l0.063 0.471h-4.867l1.754-6.578h2.236l0.547 4.102c0.031 0.236 0.233 0.407 0.464 0.407 0.021 0 0.041-0.001 0.062-0.004 0.257-0.034 0.437-0.27 0.403-0.527l-0.531-3.979h1.108l1.754 6.578zM22.319 11.025c1.133-0.524 2.108-0.81 2.692-0.952-0.071 0.697-0.27 1.96-0.824 3.492-0.736 2.034-2.261 4.951-5.378 7.594-0.451-2.015-1.203-3.837-2.242-5.433 1.802-2.514 4.112-3.942 5.752-4.701zM20.734 5.178l1.889-2.601c0.556 1.291 1.269 3.478 0.596 4.405-0.241 0.332-0.597 0.55-1.002 0.614s-0.811-0.033-1.143-0.274c-0.685-0.498-0.838-1.459-0.34-2.144z"></path>
<path fill="#ae7c78" style="fill: var(--color1, #ae7c78)" d="M11.774 13.512c-0.331-0.25-0.68-0.488-1.036-0.709-0.22-0.136-0.509-0.069-0.645 0.152s-0.069 0.509 0.152 0.645c0.332 0.206 0.657 0.428 0.966 0.661 0.085 0.064 0.183 0.094 0.282 0.094 0.142 0 0.283-0.064 0.375-0.187 0.156-0.207 0.114-0.501-0.092-0.656z"></path>
</symbol>
<symbol id="icon-camera-icon" viewBox="0 0 36 32">
<path fill="#ae7c78" style="fill: var(--color1, #ae7c78)" d="M31.803 5.655h-1.675c-0.292 0-0.528 0.236-0.528 0.528s0.236 0.528 0.528 0.528h1.675c0.292 0 0.528-0.236 0.528-0.528s-0.236-0.528-0.528-0.528z"></path>
<path fill="#ae7c78" style="fill: var(--color1, #ae7c78)" d="M22.404 8.203c-2.954 0-5.357 2.404-5.357 5.359s2.403 5.357 5.357 5.357c2.955 0 5.359-2.403 5.359-5.357s-2.404-5.359-5.359-5.359zM22.404 17.862c-2.371 0-4.3-1.929-4.3-4.3 0-2.372 1.929-4.302 4.3-4.302 2.372 0 4.302 1.93 4.302 4.302 0 2.371-1.93 4.3-4.302 4.3z"></path>
<path fill="#ae7c78" style="fill: var(--color1, #ae7c78)" d="M34.081 2.835h-6.417l-0.621-1.717c-0.1-0.276-0.405-1.118-1.266-1.118h-8.217c-0.861 0-1.166 0.841-1.266 1.118l-0.621 1.717h-5.225v-1.277c0-0.695-0.566-1.261-1.261-1.261h-2.353c-0.694 0-1.259 0.566-1.259 1.261v1.3c-0.948 0.146-1.677 0.968-1.677 1.957v10.804l-2.393 0.464c-1.006 0.196-1.665 1.174-1.469 2.178l2.372 12.236c0.173 0.885 0.954 1.503 1.826 1.503 0.116 0 0.234-0.011 0.352-0.034l5.159-1.001c0.286-0.055 0.473-0.333 0.418-0.619s-0.333-0.474-0.619-0.418l-5.158 1.001c-0.435 0.084-0.857-0.201-0.941-0.634l-2.372-12.236c-0.085-0.434 0.2-0.855 0.634-0.94l12.864-2.495c0.209-0.040 0.422 0.004 0.6 0.125s0.299 0.302 0.339 0.511l2.374 12.234c0.085 0.434-0.2 0.855-0.634 0.94l-5.161 1.001c-0.286 0.056-0.473 0.333-0.418 0.619s0.333 0.473 0.619 0.418l5.162-1.001c1.006-0.196 1.665-1.174 1.469-2.178l-0.642-3.308h5.896c0.292 0 0.528-0.236 0.528-0.528s-0.236-0.528-0.528-0.528h-6.101l-0.557-2.869c1.398 1.052 3.111 1.635 4.889 1.635 3.525 0 6.533-2.253 7.659-5.395h4.939v5.705c0 0.509-0.413 0.924-0.921 0.924h-7.322c-0.292 0-0.528 0.236-0.528 0.528s0.236 0.528 0.528 0.528h7.322c1.091 0 1.978-0.888 1.978-1.98v-17.19c0-1.092-0.887-1.98-1.978-1.98v0zM17.287 1.478c0.101-0.28 0.193-0.421 0.273-0.421h8.217c0.099 0 0.203 0.229 0.273 0.421l0.491 1.357h-9.745l0.491-1.357zM14.272 13.562c0 0.015 0.001 0.030 0.001 0.044l-3.825 0.742v-2.467h4c-0.114 0.543-0.175 1.105-0.175 1.681v0zM6.63 1.558c0-0.111 0.093-0.205 0.203-0.205h2.353c0.113 0 0.205 0.092 0.205 0.205v1.277h-2.761v-1.277zM4.953 4.814c0-0.509 0.413-0.923 0.921-0.923h3.516v10.662l-1.788 0.347v-5.957c0-0.507-0.413-0.92-0.92-0.92h-1.73v-3.208zM4.953 9.079h1.593v6.026l-1.593 0.309v-6.335zM22.404 20.637c-1.989 0-3.884-0.838-5.224-2.304l-0.635-3.273c-0.093-0.486-0.372-0.907-0.785-1.186-0.136-0.092-0.28-0.164-0.431-0.216-0-0.032-0.002-0.064-0.002-0.096 0-3.903 3.174-7.078 7.076-7.078 3.903 0 7.078 3.175 7.078 7.078 0 3.902-3.175 7.076-7.078 7.076zM35.002 15.243h-4.639c0.115-0.543 0.175-1.105 0.175-1.681s-0.061-1.138-0.175-1.681h4.639v3.362zM35.002 10.824h-4.939c-1.126-3.143-4.135-5.397-7.66-5.397s-6.532 2.254-7.658 5.397h-4.299v-6.933h23.633c0.508 0 0.921 0.414 0.921 0.923v6.010h0z"></path>
<path fill="#ae7c78" style="fill: var(--color1, #ae7c78)" d="M16.001 26.746c0.124-0.185 0.169-0.402 0.127-0.609l-1.795-9.021c-0.095-0.472-0.588-0.76-1.122-0.657l-9.798 1.9c-0.536 0.104-0.885 0.557-0.793 1.037l1.796 9.015c0.040 0.209 0.163 0.392 0.347 0.517 0.161 0.109 0.359 0.167 0.564 0.167 0.070 0 0.141-0.007 0.212-0.020l9.796-1.9c0.278-0.054 0.521-0.209 0.666-0.427zM4.701 24.406l-1.007-5.026 9.641-1.87 0.585 2.939-1.236 0.24c-2.357 0.457-3.14 1.163-3.897 1.846-0.733 0.661-1.49 1.344-4.086 1.871zM5.416 28.021l-0.246-1.269-0.262-1.309c2.883-0.587 3.785-1.4 4.586-2.122 0.709-0.64 1.321-1.192 3.391-1.593l1.241-0.241 0.928 4.665-9.638 1.87z"></path>
</symbol>
<symbol id="icon-card-icon" viewBox="0 0 43 32">
<path fill="#ae7c78" style="fill: var(--color1, #ae7c78)" d="M13.54 9.066h-7.235c-0.873 0-1.582 0.71-1.582 1.582v5.712c0 0.872 0.71 1.582 1.582 1.582h7.235c0.873 0 1.582-0.71 1.582-1.582v-5.712c0-0.873-0.71-1.582-1.582-1.582v0zM13.861 10.649v2.226h-3.309v-2.547h2.987c0.177 0 0.322 0.144 0.322 0.322zM5.983 16.361v-5.712c0-0.177 0.144-0.322 0.322-0.322h2.987v6.355h-2.987c-0.177 0-0.322-0.144-0.322-0.322zM13.54 16.683h-2.987v-2.547h3.309v2.226c-0 0.177-0.144 0.322-0.322 0.322z"></path>
<path fill="#ae7c78" style="fill: var(--color1, #ae7c78)" d="M4.722 25.226c0 0.348 0.282 0.63 0.63 0.63h18.549c0.348 0 0.63-0.282 0.63-0.63s-0.282-0.63-0.63-0.63h-18.549c-0.348 0-0.63 0.282-0.63 0.63z"></path>
<path fill="#ae7c78" style="fill: var(--color1, #ae7c78)" d="M5.353 26.996c-0.348 0-0.63 0.282-0.63 0.63s0.282 0.63 0.63 0.63h9.275c0.348 0 0.63-0.282 0.63-0.63s-0.282-0.63-0.63-0.63h-9.275z"></path>
<path fill="#ae7c78" style="fill: var(--color1, #ae7c78)" d="M16.547 22.218v-1.524c0-0.348-0.282-0.63-0.63-0.63s-0.63 0.282-0.63 0.63v1.524c0 0.348 0.282 0.63 0.63 0.63s0.63-0.282 0.63-0.63z"></path>
<path fill="#ae7c78" style="fill: var(--color1, #ae7c78)" d="M19.428 22.218v-1.524c0-0.348-0.282-0.63-0.63-0.63s-0.63 0.282-0.63 0.63v1.524c0 0.348 0.282 0.63 0.63 0.63s0.63-0.282 0.63-0.63z"></path>
<path fill="#ae7c78" style="fill: var(--color1, #ae7c78)" d="M22.309 22.218v-1.524c0-0.348-0.282-0.63-0.63-0.63s-0.63 0.282-0.63 0.63v1.524c0 0.348 0.282 0.63 0.63 0.63s0.63-0.282 0.63-0.63z"></path>
<path fill="#ae7c78" style="fill: var(--color1, #ae7c78)" d="M25.191 22.218v-1.524c0-0.348-0.282-0.63-0.63-0.63s-0.63 0.282-0.63 0.63v1.524c0 0.348 0.282 0.63 0.63 0.63s0.63-0.282 0.63-0.63z"></path>
<path fill="#ae7c78" style="fill: var(--color1, #ae7c78)" d="M28.732 20.695v1.524c0 0.348 0.282 0.63 0.63 0.63s0.63-0.282 0.63-0.63v-1.524c0-0.348-0.282-0.63-0.63-0.63s-0.63 0.282-0.63 0.63z"></path>
<path fill="#ae7c78" style="fill: var(--color1, #ae7c78)" d="M31.613 20.695v1.524c0 0.348 0.282 0.63 0.63 0.63s0.63-0.282 0.63-0.63v-1.524c0-0.348-0.282-0.63-0.63-0.63s-0.63 0.282-0.63 0.63z"></path>
<path fill="#ae7c78" style="fill: var(--color1, #ae7c78)" d="M34.494 20.695v1.524c0 0.348 0.282 0.63 0.63 0.63s0.63-0.282 0.63-0.63v-1.524c0-0.348-0.282-0.63-0.63-0.63s-0.63 0.282-0.63 0.63z"></path>
<path fill="#ae7c78" style="fill: var(--color1, #ae7c78)" d="M5.353 22.849c0.348 0 0.63-0.282 0.63-0.63v-1.524c0-0.348-0.282-0.63-0.63-0.63s-0.63 0.282-0.63 0.63v1.524c0 0.348 0.282 0.63 0.63 0.63z"></path>
<path fill="#ae7c78" style="fill: var(--color1, #ae7c78)" d="M8.864 22.218v-1.524c0-0.348-0.282-0.63-0.63-0.63s-0.63 0.282-0.63 0.63v1.524c0 0.348 0.282 0.63 0.63 0.63s0.63-0.282 0.63-0.63z"></path>
<path fill="#ae7c78" style="fill: var(--color1, #ae7c78)" d="M11.745 22.218v-1.524c0-0.348-0.282-0.63-0.63-0.63s-0.63 0.282-0.63 0.63v1.524c0 0.348 0.282 0.63 0.63 0.63s0.63-0.282 0.63-0.63z"></path>
<path fill="#ae7c78" style="fill: var(--color1, #ae7c78)" d="M43.032 6.404c0-3.531-2.873-6.404-6.404-6.404-3.163 0-5.796 2.305-6.311 5.323h-16.311c-0.348 0-0.63 0.282-0.63 0.63s0.282 0.63 0.63 0.63h16.221c0.096 3.47 2.961 6.222 6.399 6.224 0.001 0 0.002 0 0.002 0s0 0 0 0c0.001 0 0.001-0 0.002-0 0.921-0 1.814-0.203 2.586-0.545v10.601c0 0.348 0.282 0.63 0.63 0.63s0.63-0.282 0.63-0.63v-11.345c1.551-1.17 2.555-3.027 2.555-5.115zM36.628 1.261c2.836 0 5.143 2.307 5.143 5.143 0 2.841-2.314 5.143-5.143 5.143-2.891 0-5.256-2.407-5.138-5.351 0.132-2.832 2.445-4.935 5.138-4.935v0z"></path>
<path fill="#ae7c78" style="fill: var(--color1, #ae7c78)" d="M34.885 8.83c0.213 0.346 0.694 0.403 0.982 0.115l4.077-4.077c0.246-0.246 0.246-0.645 0-0.891s-0.645-0.246-0.891 0l-3.514 3.514-1.359-2.203c-0.183-0.296-0.571-0.388-0.867-0.205s-0.388 0.571-0.205 0.867l1.778 2.881z"></path>
<path fill="#ae7c78" style="fill: var(--color1, #ae7c78)" d="M39.847 25.175c-0.348 0-0.63 0.282-0.63 0.63v2.6c0 1.287-1.047 2.334-2.334 2.334h-33.287c-1.287 0-2.334-1.047-2.334-2.334v-19.487c0-1.287 1.047-2.334 2.334-2.334h7.47c0.348 0 0.63-0.282 0.63-0.63s-0.282-0.63-0.63-0.63h-7.47c-1.982 0-3.595 1.613-3.595 3.595v19.487c0 1.982 1.613 3.595 3.595 3.595h33.287c1.982 0 3.595-1.613 3.595-3.595v-2.6c0-0.348-0.282-0.63-0.63-0.63v0z"></path>
<path fill="#ae7c78" style="fill: var(--color1, #ae7c78)" d="M36.517 16.974v-1.863c0-0.534-0.435-0.969-0.969-0.969h-6.437c-0.534 0-0.969 0.435-0.969 0.969v1.863c0 0.534 0.435 0.969 0.969 0.969h6.437c0.534 0 0.969-0.435 0.969-0.969v0zM35.257 16.683h-5.854v-1.28h5.854v1.28z"></path>
</symbol>
<symbol id="icon-delivery-icon" viewBox="0 0 50 32">
<path fill="#ae7c78" style="fill: var(--color1, #ae7c78)" d="M49.641 14.773c-0.525-0.627-1.24-1.034-2.061-1.186l-0.385-5.243c0.38-0.004 0.704-0.278 0.771-0.654l0.149-0.845c0.159-0.906-0.063-1.8-0.61-2.453s-1.345-1.012-2.251-1.012h-5.801l0.282-1.605c0.080-0.456-0.036-0.911-0.318-1.249-0.28-0.334-0.7-0.526-1.154-0.526h-28.553c-0.844 0-1.622 0.659-1.769 1.499l-2.526 14.363c-0.076 0.431 0.211 0.842 0.641 0.917 0.046 0.008 0.092 0.012 0.138 0.012 0.376 0 0.71-0.27 0.777-0.655l2.526-14.363c0.017-0.095 0.138-0.19 0.213-0.19l28.454 0-2.511 14.278c-0.076 0.431 0.211 0.842 0.641 0.917s0.84-0.212 0.915-0.643l0.182-1.035h9.448c0 0 0.001 0 0.001 0s0.001 0 0.001 0c0.653 0 1.217 0.245 1.589 0.689 0.256 0.306 0.405 0.686 0.441 1.107h-2.624c-0.383 0-0.712 0.276-0.778 0.655l-0.297 1.69c-0.12 0.681 0.049 1.355 0.464 1.851 0.409 0.489 1.029 0.769 1.703 0.769h0.744l-0.613 3.485h-2.086c-0.137-0.697-0.438-1.338-0.893-1.882-0.808-0.966-1.997-1.497-3.348-1.497-2.166 0-4.256 1.421-5.235 3.38h-0.318l1.025-5.829c0.076-0.431-0.211-0.842-0.641-0.918s-0.84 0.212-0.915 0.643l-1.074 6.105h-14.626c-0.137-0.697-0.438-1.338-0.893-1.882-0.808-0.966-1.997-1.497-3.348-1.497-2.166 0-4.256 1.421-5.235 3.38l-4.531-0 0.316-1.795h3.551c0.436 0 0.79-0.355 0.79-0.792s-0.354-0.792-0.79-0.792h-8.428c-0.436 0-0.79 0.355-0.79 0.792s0.354 0.792 0.79 0.792h3.272l-0.282 1.605c-0.080 0.456 0.036 0.911 0.318 1.249 0.28 0.334 0.7 0.526 1.154 0.526h4.117c-0.214 1.344 0.108 2.609 0.913 3.572 0.808 0.966 1.997 1.497 3.348 1.497 2.689 0 5.262-2.189 5.735-4.879 0.011-0.064 0.020-0.127 0.029-0.19h15.999c-0.214 1.343 0.108 2.609 0.913 3.572 0.808 0.966 1.997 1.497 3.348 1.497 2.689 0 5.262-2.189 5.735-4.879 0.011-0.064 0.020-0.127 0.029-0.19h2.713c0.383 0 0.712-0.276 0.778-0.655l1.486-8.449c0.202-1.147-0.067-2.232-0.755-3.054zM37.67 13.518l0.91-5.175h7.031l0.38 5.175h-8.321zM46.558 6.569l-0.033 0.19h-7.666l0.316-1.795h6.079c0.43 0 0.8 0.158 1.040 0.446 0.249 0.298 0.343 0.709 0.264 1.159zM17.81 26.846c-0.346 1.968-2.221 3.57-4.179 3.57-0.876 0-1.635-0.331-2.138-0.931-0.517-0.618-0.714-1.457-0.555-2.363 0.346-1.968 2.221-3.57 4.179-3.57 0.876 0 1.635 0.331 2.138 0.931 0.517 0.618 0.714 1.457 0.555 2.363zM43.834 26.846c-0.346 1.968-2.221 3.57-4.179 3.57-0.876 0-1.635-0.331-2.138-0.931-0.517-0.618-0.714-1.457-0.555-2.363 0.346-1.968 2.221-3.57 4.179-3.57 0.876 0 1.635 0.331 2.138 0.931 0.517 0.618 0.714 1.457 0.555 2.363zM48.36 20.277l-1.023-0c-0.211 0-0.381-0.070-0.492-0.203-0.115-0.138-0.157-0.336-0.118-0.557l0.182-1.035h1.766l-0.316 1.795z"></path>
<path fill="#ae7c78" style="fill: var(--color1, #ae7c78)" d="M15.677 25.872c-0.28-0.334-0.7-0.526-1.154-0.526-0.844 0-1.622 0.659-1.769 1.5-0.080 0.456 0.036 0.911 0.318 1.249 0.28 0.334 0.7 0.526 1.154 0.526 0.844 0 1.622-0.659 1.77-1.499 0.080-0.456-0.036-0.911-0.318-1.249z"></path>
<path fill="#ae7c78" style="fill: var(--color1, #ae7c78)" d="M41.701 25.872c-0.28-0.334-0.7-0.526-1.154-0.526-0.844 0-1.622 0.659-1.769 1.499-0.080 0.456 0.036 0.911 0.318 1.249 0.28 0.334 0.7 0.526 1.154 0.526 0.844 0 1.622-0.659 1.77-1.499 0.080-0.456-0.036-0.911-0.318-1.249z"></path>
<path fill="#ae7c78" style="fill: var(--color1, #ae7c78)" d="M31.871 21.967h-10.012c-0.436 0-0.79 0.355-0.79 0.792s0.354 0.792 0.79 0.792h10.012c0.436 0 0.79-0.355 0.79-0.792s-0.354-0.792-0.79-0.792z"></path>
<path fill="#ae7c78" style="fill: var(--color1, #ae7c78)" d="M17.645 18.588h-14.575c-0.436 0-0.79 0.355-0.79 0.792s0.354 0.792 0.79 0.792h14.575c0.436 0 0.79-0.355 0.79-0.792s-0.354-0.792-0.79-0.792z"></path>
<path fill="#ae7c78" style="fill: var(--color1, #ae7c78)" d="M32.734 15.401l-2.925-2.535c-0.33-0.286-0.829-0.25-1.114 0.081s-0.249 0.831 0.081 1.117l1.319 1.143h-20.034c-0.436 0-0.79 0.355-0.79 0.792s0.354 0.792 0.79 0.792h19.533l-1.63 1.082c-0.364 0.241-0.463 0.733-0.222 1.098 0.152 0.23 0.403 0.355 0.659 0.355 0.15 0 0.301-0.043 0.436-0.132l3.817-2.535c0.206-0.137 0.336-0.362 0.352-0.61s-0.085-0.488-0.272-0.65z"></path>
</symbol>
<symbol id="icon-facebook-icon" viewBox="0 0 19 32">
<path fill="#d89999" style="fill: var(--color2, #d89999)" d="M13.537 0c-4.807 0-8.099 2.65-8.099 7.519v4.196h-5.438v5.691h5.438v14.595h6.5v-14.595h5.423l0.814-5.691h-6.237v-3.634c0-1.647 0.507-2.77 3.121-2.77h3.333v-5.087c-0.576-0.069-2.554-0.224-4.856-0.224z"></path>
</symbol>
<symbol id="icon-footer-logo" viewBox="0 0 97 32">
<path fill="#ffdcdc" style="fill: var(--color3, #ffdcdc)" d="M9.423 16.672c-1.946 2.472-5.799 2.537-7.974 0.323-2.066-2.080-1.812-5.397 0.044-7.459 0.899-2.733 4.853-2.392 6.937-0.725 2.414 1.946 2.961 5.357 0.993 7.861z"></path>
<path fill="#ffdcdc" style="fill: var(--color3, #ffdcdc)" d="M13.095 9.195c-1.914 0-2.7-1.192-2.863-2.642-0.616-1.812 0.21-3.932 2.236-4.462 0.479-0.121 0.979-0.139 1.466-0.054s0.951 0.271 1.361 0.547c0.41 0.276 0.758 0.635 1.020 1.054s0.433 0.889 0.502 1.378c0.064 0.526 0.015 1.059-0.143 1.564s-0.422 0.971-0.774 1.366c-0.352 0.395-0.784 0.711-1.268 0.926s-1.008 0.325-1.537 0.322z"></path>
<path fill="#fff" style="fill: var(--color4, #fff)" d="M19.129 30.18l0.12-0.225c-0.801-0.511-1.598-1.029-2.396-1.544-0.684-0.534-1.306-1.141-1.856-1.812-0.747-0.823-1.497-1.649-2.247-2.468-0.065-0.069-0.149-0.149-0.156-0.214-0.742-0.782-1.354-1.677-1.812-2.653-0.48-0.756-0.913-1.54-1.298-2.349-0.040-0.087 0.051-0.239 0.080-0.362 0.161-0.037 0.316-0.096 0.46-0.178 0.474-0.415 0.82-0.957 0.997-1.562 0.765-1.957 1.421-3.94 1.348-6.082-0.019-0.115-0.052-0.227-0.098-0.333-0.102 0.054-0.196 0.122-0.279 0.203-0.507 0.671-1.022 1.337-1.5 2.030-0.711 0.982-1.205 2.104-1.45 3.291-0.109 0.562-0.123 1.138-0.178 1.707-0.032-0.046-0.062-0.095-0.087-0.145-0.304-0.725-0.598-1.45-0.913-2.175-0.044-0.085-0.056-0.182-0.037-0.275s0.071-0.177 0.145-0.236c0.365-0.342 0.696-0.718 0.989-1.124 0.787-1.296 1.359-2.711 1.693-4.19 0.12-0.531 0.199-1.070 0.236-1.613 0-0.167-0.116-0.344-0.178-0.518-0.172 0.064-0.331 0.157-0.471 0.275-0.391 0.471-0.765 0.96-1.12 1.45-0.724 0.913-1.236 1.975-1.5 3.11-0.098 0.551-0.141 1.113-0.214 1.671h-0.036l-0.663-2.624 0.188 0.279c0.074-0.15 0.16-0.294 0.257-0.431 0.431-0.54 0.986-1.015 1.283-1.62 0.437-0.937 0.801-1.906 1.087-2.899 0.111-0.464 0.169-0.94 0.174-1.417 0-0.12-0.083-0.243-0.13-0.362-0.098 0.040-0.236 0.054-0.286 0.127-0.707 0.975-1.45 1.928-2.084 2.943-0.277 0.543-0.503 1.111-0.674 1.696-0.107-0.348-0.087-0.723 0.054-1.058 0.594-1.504 0.993-3.077 1.185-4.683 0.109-1.131 0.159-2.267 0.149-3.403-0.020-0.141-0.062-0.278-0.123-0.406-0.13 0.065-0.304 0.101-0.391 0.207-0.739 0.855-1.273 1.868-1.562 2.961-0.391 1.696-0.217 3.392 0.105 5.074 0.149 0.772 0.308 1.54 0.464 2.32-0.772-0.294-1.45-0.591-2.146-0.808-1.213-0.327-2.485-0.365-3.715-0.112-0.155 0.052-0.298 0.132-0.424 0.236 0.077 0.155 0.176 0.298 0.294 0.424 0.837 0.68 1.879 1.056 2.957 1.066 0.856 0.023 1.711-0.080 2.537-0.305 0.449-0.127 0.507-0.076 0.609 0.362 0.123 0.533 0.246 1.066 0.384 1.595 0.098 0.391 0.217 0.783 0.337 1.221-0.105-0.058-0.163-0.083-0.217-0.12-0.825-0.588-1.84-0.847-2.845-0.725-1.051 0.17-2.084 0.457-3.124 0.7-0.167 0.037-0.33 0.092-0.486 0.163-0.052 0.017-0.098 0.050-0.131 0.095s-0.050 0.098-0.050 0.153c0 0.055 0.017 0.109 0.050 0.153s0.078 0.078 0.131 0.095c0.516 0.261 1.054 0.473 1.609 0.634 0.67 0.118 1.347 0.195 2.026 0.228 1.118 0.108 2.244-0.086 3.262-0.562l1.232 2.936c-1.349-0.51-2.813-0.636-4.23-0.362-1.087 0.236-2.175 0.616-3.233 0.95-0.134 0.044-0.239 0.181-0.362 0.272 0.112 0.12 0.203 0.297 0.341 0.362 0.665 0.297 1.354 0.54 2.059 0.725 0.673 0.102 1.353 0.149 2.033 0.141 1.188 0.006 2.361-0.271 3.421-0.808 0.144-0.072 0.285-0.152 0.42-0.239l2.403 4.063c-0.362-0.141-0.787-0.326-1.214-0.457-1.812-0.558-3.7-0.558-5.578-0.362-0.689 0.065-1.37 0.214-2.051 0.337-0.294 0.054-0.362 0.203-0.178 0.384 0.585 0.622 1.285 1.125 2.062 1.479 1.311 0.533 2.713 0.805 4.128 0.801 1.205 0.070 2.401-0.248 3.41-0.91 0.076-0.032 0.159-0.043 0.24-0.034s0.16 0.038 0.227 0.085c0.786 0.866 1.544 1.758 2.349 2.686l-0.638-0.21c-0.816-0.293-1.671-0.466-2.537-0.515-1.633-0.035-3.253 0.292-4.744 0.957-0.41 0.167-0.837 0.297-1.25 0.449-0.096 0.042-0.188 0.092-0.275 0.149 0.072 0.105 0.123 0.268 0.217 0.305 0.772 0.276 1.533 0.656 2.33 0.754 1.729 0.214 3.476 0.446 5.226 0.112 0.895-0.167 1.794-0.319 2.519-0.942 0.055-0.041 0.113-0.077 0.174-0.109 0.131 0.148 0.274 0.285 0.428 0.41 0.79 0.536 1.58 1.087 2.385 1.584l0.312 0.192c0.019-0.015 0.033-0.035 0.040-0.058zM9.344 5.864c-0.362 1.667-0.725 3.353-2.073 4.585 0.525-1.597 1.219-3.134 2.070-4.585h0.004zM8.938 5.741c-0.678 1.558-1.45 3.305-2.175 5.031-0.018-2.073 1.044-3.671 2.171-5.031h0.004zM1.214 9.851c1.354-0.184 2.732 0.006 3.987 0.547l-3.987-0.457v-0.091zM0.768 10.166l4.889 0.594c-1.16 0.696-4.11 0.297-4.889-0.594zM6.118 7.651c-0.649-2.537 0-5.821 1.421-7.129-0.917 2.28-1.058 4.708-1.421 7.129zM7.568 1.232c0.326 0.884-0.395 5.299-1.131 6.665 0.199-2.236 0.344-4.483 1.124-6.665h0.007zM6.194 14.008c0.283 0.131 0.544 0.301 0.816 0.453l-0.036 0.127c-1.857-0.25-3.731-0.341-5.603-0.272 1.587-0.439 3.164-1.073 4.824-0.308zM1.225 14.733c0.602-0.243 4.835-0.134 5.886 0.152-1.142 0.7-4.994 0.573-5.886-0.156v0.004zM7.974 14.371c0.692-2.049 1.57-4.030 2.624-5.919-0.489 2.127-1.015 4.255-2.624 5.904v0.015zM10.511 7.742l-2.722 5.908c-0.087-2.414 1.377-4.132 2.722-5.922v0.014zM1.243 18.977c2.254-1.182 5.85-1.606 7.51-0.504-0.121-0.001-0.242-0.010-0.362-0.025-1.265-0.232-2.515-0.047-3.762 0.141-0.935 0.141-1.87 0.279-2.805 0.406-0.19 0.002-0.381-0.010-0.569-0.036l-0.011 0.018zM2.153 19.209c2.236-0.272 4.447-0.888 6.749-0.471-0.975 0.946-4.607 1.558-6.749 0.471zM12.084 11.471c0.011 0.113 0.011 0.227 0 0.341-0.196 0.968-0.362 1.95-0.616 2.899-0.26 0.882-0.579 1.746-0.957 2.584-0.203 0.34-0.447 0.653-0.725 0.935-0.076 0.098-0.145 0.199-0.217 0.301-0.025-0.145-0.105-0.308-0.062-0.428 0.58-1.592 1.168-3.181 1.765-4.766 0.232-0.627 0.475-1.25 0.725-1.877l0.087 0.011zM11.482 11.888c-0.743 1.95-1.482 3.903-2.247 5.911-0.174-2.359 0.826-4.215 2.247-5.911zM11.268 23.37l-7.6-0.536c1.435-0.54 5.853-0.591 7.6 0.536zM10.181 24.82c-2.121 0.356-4.3-0.004-6.194-1.022-0.293-0.189-0.568-0.403-0.823-0.641l0.040-0.080c2.914 0.222 5.833 0.447 8.756 0.674 0.062 0 0.116 0.094 0.21 0.178-0.56 0.483-1.249 0.791-1.983 0.888l-0.007 0.004zM15.2 27.545c-2.668 0.181-5.339 0.076-8.082 0.073 2.726-1.192 5.397-1.33 8.082-0.073zM15.001 28.31c-1.283 0.474-2.65 0.682-4.016 0.613-0.58-0.040-1.156-0.101-1.736-0.105-1.030-0.038-2.040-0.292-2.965-0.747 3.106-0.308 6.223 0.065 9.329-0.272 0 0.040 0.018 0.076 0.025 0.112-0.196 0.161-0.41 0.3-0.638 0.413v-0.015z"></path>
<path fill="#fff" style="fill: var(--color4, #fff)" d="M14.32 7.72c-0.294 0.743-0.855 1.044-1.486 0.794-0.299-0.105-0.545-0.322-0.685-0.606s-0.164-0.611-0.065-0.912c0.228-0.594 1.087-1.022 1.66-0.805 0.27 0.137 0.479 0.37 0.585 0.653s0.103 0.596-0.009 0.877zM14.037 7.611c0.076-0.213 0.072-0.446-0.009-0.656s-0.235-0.385-0.434-0.493c-0.249-0.056-0.51-0.027-0.741 0.083s-0.418 0.294-0.532 0.522c-0.042 0.115-0.060 0.238-0.053 0.36s0.038 0.242 0.092 0.352 0.13 0.208 0.223 0.288c0.093 0.080 0.201 0.14 0.318 0.177 0.478 0.188 0.91-0.058 1.134-0.634z"></path>
<path fill="#fff" style="fill: var(--color4, #fff)" d="M4.099 6.886c0.1 0.029 0.194 0.079 0.275 0.144s0.149 0.147 0.198 0.239c0.050 0.092 0.080 0.193 0.091 0.297s-0 0.209-0.031 0.309c-0.045 0.123-0.113 0.235-0.202 0.331s-0.195 0.173-0.314 0.227c-0.119 0.054-0.247 0.084-0.377 0.088s-0.26-0.018-0.382-0.065c-0.184-0.088-0.326-0.247-0.394-0.44s-0.057-0.405 0.032-0.59c0.032-0.111 0.087-0.215 0.162-0.303s0.167-0.161 0.271-0.212c0.104-0.051 0.218-0.079 0.334-0.084s0.231 0.016 0.339 0.059zM3.99 7.14c-0.074-0.031-0.154-0.046-0.235-0.044s-0.16 0.020-0.233 0.054c-0.073 0.034-0.138 0.083-0.191 0.144s-0.093 0.132-0.117 0.208c-0.059 0.128-0.068 0.274-0.024 0.409s0.136 0.247 0.26 0.316c0.179 0.059 0.373 0.049 0.545-0.028s0.308-0.216 0.383-0.388c0.017-0.069 0.021-0.14 0.011-0.21s-0.034-0.138-0.071-0.199c-0.036-0.061-0.084-0.114-0.141-0.156s-0.122-0.073-0.19-0.090l0.004-0.014z"></path>
<path fill="#fff" style="fill: var(--color4, #fff)" d="M11.543 4.864c0.181-0.417 0.457-0.598 0.725-0.478 0.16 0.084 0.284 0.223 0.351 0.391s0.071 0.355 0.012 0.526c-0.082 0.137-0.212 0.238-0.365 0.284s-0.317 0.032-0.461-0.038c-0.068-0.021-0.13-0.056-0.181-0.105s-0.092-0.108-0.117-0.174c-0.025-0.066-0.035-0.137-0.028-0.207s0.029-0.138 0.066-0.199z"></path>
<path fill="#fff" style="fill: var(--color4, #fff)" d="M3.646 5.11c0.067 0.027 0.129 0.068 0.179 0.12s0.090 0.114 0.116 0.182c0.026 0.068 0.037 0.141 0.033 0.214s-0.023 0.144-0.056 0.209c-0.060 0.135-0.166 0.243-0.299 0.306s-0.284 0.077-0.426 0.038c-0.243-0.098-0.323-0.391-0.196-0.707s0.384-0.471 0.649-0.362z"></path>
<path fill="#fff" style="fill: var(--color4, #fff)" d="M1.355 6.393c0.127-0.362 0.333-0.362 0.486-0.261s0.174 0.272 0.261 0.413c-0.163 0.092-0.343 0.15-0.529 0.17-0.098-0.011-0.17-0.25-0.217-0.323z"></path>
<path fill="#fff" style="fill: var(--color4, #fff)" d="M13.686 4.904c-0.069-0.246-0.17-0.424-0.123-0.489 0.13-0.143 0.282-0.265 0.449-0.362 0.074 0.178 0.116 0.369 0.123 0.562 0 0.098-0.225 0.152-0.449 0.29z"></path>
<path fill="#fff" style="fill: var(--color4, #fff)" d="M19.611 15.969c2.965 0.395 3.824 1.859 3.824 3.378 0 2.131-1.689 3.624-4.498 3.624-0.558 0-1.685-0.058-3.222-0.058-0.877 0-1.812 0.022-2.323 0.058v-0.362c1.272-0.054 1.519-0.246 1.519-1.609v-9.3c0-1.363-0.246-1.555-1.519-1.609v-0.362c0.522 0.036 1.45 0.054 2.287 0.054 1.181 0 2.377-0.036 2.827-0.036 2.624-0.014 3.965 1.203 3.965 2.939 0 1.327-0.75 2.617-2.845 3.262l-0.014 0.022zM16.65 11.699v4.248h1.261c2.204 0 2.747-1.45 2.747-3.070 0-1.837-0.75-2.787-2.628-2.787-1.134 0-1.381 0.319-1.381 1.609zM21.561 19.263c0-1.903-0.96-3.008-3.338-3.008h-1.573v4.737c0 1.308 0.247 1.555 1.406 1.555 2.454 0 3.505-1.163 3.505-3.284z"></path>
<path fill="#fff" style="fill: var(--color4, #fff)" d="M33.663 18.165c0 3.595-1.874 5.074-4.251 5.074s-4.255-1.493-4.255-5.074c0-3.581 1.874-5.096 4.255-5.096s4.251 1.493 4.251 5.096zM26.976 18.165c0 3.349 1.015 4.712 2.436 4.712s2.432-1.352 2.432-4.712c0-3.36-1.008-4.712-2.432-4.712s-2.436 1.355-2.436 4.712z"></path>
<path fill="#fff" style="fill: var(--color4, #fff)" d="M40.872 13.345v0.362h-2.773v7.249c0 1.178 0.449 1.591 1.2 1.591s1.297-0.54 1.693-2.004l0.362 0.094c-0.257 1.45-0.917 2.588-2.432 2.588-0.863 0-1.366-0.21-1.776-0.623-0.547-0.558-0.725-1.29-0.725-2.624v-6.259h-1.812v-0.362h1.812v-2.863c0.571 0 1.138-0.089 1.682-0.265v3.128l2.769-0.011z"></path>
<path fill="#fff" style="fill: var(--color4, #fff)" d="M48.11 13.773c0.594 0.602 0.747 1.298 0.747 2.624v5.208c0 0.605 0.149 0.888 0.576 0.888 0.32-0.017 0.621-0.154 0.845-0.384l0.21 0.323c-0.464 0.435-1.075 0.679-1.711 0.685-1.308 0-1.609-0.787-1.609-1.664-0.287 0.51-0.706 0.934-1.213 1.227s-1.083 0.444-1.669 0.437c-1.254 0-2.381-0.631-2.381-2.095s1.145-2.142 3.019-2.928c1.254-0.518 2.243-0.841 2.243-1.591v-1.171c0-1.573-0.768-1.885-1.74-1.885-0.642 0-1.428 0.127-1.856 0.667 0.254 0.063 0.48 0.211 0.639 0.419s0.243 0.464 0.238 0.726c0.006 0.141-0.019 0.282-0.073 0.412s-0.135 0.248-0.238 0.344c-0.103 0.096-0.226 0.169-0.36 0.214s-0.276 0.060-0.416 0.045c-0.641 0-1.015-0.486-1.015-1.163 0-0.547 0.362-0.979 0.877-1.334 0.79-0.482 1.702-0.728 2.628-0.707 1.040 0 1.827 0.275 2.258 0.703zM47.167 17.256c-0.203 0.304-0.616 0.493-1.794 1.087-0.823 0.395-1.812 0.935-1.812 2.381 0 1.123 0.638 1.645 1.501 1.645 0.75 0 1.479-0.395 2.113-1.417l-0.007-3.697z"></path>
<path fill="#fff" style="fill: var(--color4, #fff)" d="M59.33 13.773c0.468 0.511 0.649 1.178 0.649 2.461v5.005c0 1.044 0.395 1.345 1.428 1.345v0.395c-0.428 0-1.428-0.076-2.251-0.076s-1.7 0.058-2.095 0.076v-0.395c0.899 0 1.236-0.301 1.236-1.345v-5.415c0-1.163-0.163-2.175-1.519-2.175-1.573 0-2.624 1.501-2.624 3.414v4.175c0 1.044 0.337 1.345 1.243 1.345v0.395c-0.391 0-1.279-0.076-2.102-0.076s-1.812 0.058-2.251 0.076v-0.395c1.033 0 1.424-0.301 1.424-1.345v-5.864c0-1.124-0.337-1.656-1.424-1.656v-0.391c0.391 0.036 0.787 0.054 1.16 0.054 0.66 0.019 1.318-0.068 1.95-0.257v2.207c0.66-1.685 1.91-2.262 3.193-2.262 0.95 0 1.555 0.257 1.982 0.703z"></path>
<path fill="#fff" style="fill: var(--color4, #fff)" d="M65.344 21.239c0 1.044 0.391 1.345 1.424 1.345v0.395c-0.428 0-1.406-0.076-2.269-0.076s-1.838 0.058-2.265 0.076v-0.395c1.033 0 1.424-0.301 1.424-1.345v-5.864c0-1.124-0.337-1.656-1.424-1.656v-0.391c0.391 0.036 0.787 0.054 1.16 0.054 0.66 0.019 1.318-0.068 1.95-0.257v8.115zM65.572 9.84c0.001 0.237-0.069 0.47-0.2 0.668s-0.319 0.352-0.538 0.443-0.46 0.116-0.693 0.070c-0.233-0.046-0.447-0.16-0.615-0.327s-0.283-0.381-0.329-0.614-0.023-0.474 0.068-0.694c0.091-0.219 0.244-0.407 0.442-0.539s0.429-0.202 0.667-0.202c0.317 0.003 0.62 0.13 0.844 0.353s0.352 0.526 0.356 0.843z"></path>
<path fill="#fff" style="fill: var(--color4, #fff)" d="M76.046 21.605c0.428 0.584 0.747 0.906 1.305 0.979v0.395c-0.283 0-0.95-0.076-1.519-0.076-0.787 0-1.682 0.058-2.073 0.076v-0.395c0.362 0 0.576-0.145 0.576-0.362-0.008-0.104-0.047-0.204-0.112-0.286l-2.149-3.146c-0.457-0.638-0.75-0.794-1.406-0.823v3.262c0 1.044 0.337 1.345 1.232 1.345v0.406c-0.391 0-1.29-0.076-2.077-0.076-0.859 0-1.838 0.058-2.265 0.076v-0.395c1.033 0 1.424-0.301 1.424-1.345v-10.703c0-1.124-0.337-1.646-1.424-1.646v-0.395c0.385 0.039 0.772 0.058 1.16 0.058 0.66 0.019 1.319-0.072 1.95-0.268v9.304c0.614-0.049 1.188-0.326 1.609-0.776l1.388-1.45c0.42-0.439 0.594-0.776 0.594-1.033 0-0.457-0.594-0.641-1.381-0.641v-0.362c0.652 0.036 1.573 0.073 2.113 0.073 0.623 0 1.254-0.036 1.631-0.073v0.362c-0.652 0.074-1.252 0.388-1.685 0.881l-2.276 2.396 3.385 4.639z"></path>
<path fill="#fff" style="fill: var(--color4, #fff)" d="M84.23 13.773c0.594 0.602 0.75 1.297 0.75 2.624v5.208c0 0.605 0.149 0.888 0.576 0.888 0.32-0.017 0.621-0.154 0.844-0.384l0.21 0.323c-0.464 0.435-1.075 0.679-1.711 0.685-1.308 0-1.613-0.786-1.613-1.663-0.288 0.513-0.71 0.939-1.22 1.231s-1.091 0.442-1.679 0.432c-1.25 0-2.377-0.631-2.377-2.095s1.145-2.142 3.019-2.928c1.254-0.518 2.24-0.841 2.24-1.591v-1.171c0-1.573-0.768-1.885-1.736-1.885-0.641 0-1.428 0.127-1.856 0.667 0.254 0.063 0.48 0.211 0.639 0.419s0.243 0.464 0.238 0.726c0.006 0.141-0.019 0.282-0.073 0.412s-0.135 0.248-0.238 0.344c-0.103 0.096-0.226 0.169-0.36 0.214s-0.276 0.060-0.416 0.045c-0.642 0-1.015-0.486-1.015-1.163 0-0.547 0.362-0.979 0.877-1.334 0.789-0.482 1.7-0.727 2.624-0.707 1.062 0 1.848 0.275 2.276 0.703zM83.288 17.255c-0.199 0.305-0.612 0.493-1.79 1.087-0.823 0.395-1.812 0.935-1.812 2.381 0 1.124 0.638 1.645 1.497 1.645 0.75 0 1.482-0.395 2.113-1.417l-0.007-3.697z"></path>
<path fill="#fff" style="fill: var(--color4, #fff)" d="M31.637 29.647v1.229h-0.326v-0.928h-3.313v-3.566h0.341v3.262h2.363v-3.262h0.341v3.262l0.594 0.004z"></path>
<path fill="#fff" style="fill: var(--color4, #fff)" d="M35.519 28.995c0 0.616-0.435 0.957-1.352 0.957h-1.548v-3.57h1.504c0.787 0 1.269 0.315 1.269 0.91 0.004 0.192-0.059 0.38-0.18 0.53s-0.291 0.252-0.48 0.289c0.11 0.005 0.219 0.031 0.318 0.079s0.189 0.114 0.263 0.197 0.129 0.179 0.165 0.284c0.035 0.105 0.049 0.215 0.041 0.325zM32.982 28.009h1.145c0.609 0 0.95-0.232 0.95-0.678s-0.341-0.67-0.95-0.67h-1.145v1.348zM35.189 28.995c0-0.482-0.294-0.703-0.964-0.703h-1.243v1.395h1.2c0.652-0.018 1.008-0.232 1.008-0.692z"></path>
<path fill="#fff" style="fill: var(--color4, #fff)" d="M39.784 28.248h-3.066c0.020 0.299 0.127 0.585 0.308 0.823s0.429 0.418 0.711 0.516c0.283 0.098 0.588 0.111 0.878 0.036s0.551-0.233 0.752-0.455l0.199 0.225c-0.167 0.191-0.374 0.342-0.607 0.442s-0.485 0.147-0.738 0.138c-0.242 0.012-0.485-0.026-0.711-0.113s-0.433-0.219-0.606-0.389c-0.173-0.17-0.308-0.375-0.398-0.6s-0.131-0.467-0.122-0.71c-0.015-0.233 0.018-0.467 0.096-0.687s0.202-0.421 0.361-0.592c0.16-0.17 0.353-0.306 0.567-0.399s0.445-0.141 0.679-0.141c0.234 0 0.465 0.048 0.679 0.141s0.407 0.229 0.567 0.399c0.16 0.17 0.283 0.372 0.361 0.592s0.111 0.454 0.096 0.687c0 0.018-0.007 0.051-0.007 0.087zM36.725 27.98h2.733c0-0.362-0.144-0.71-0.4-0.966s-0.604-0.4-0.966-0.4c-0.362 0-0.71 0.144-0.966 0.4s-0.4 0.604-0.4 0.966z"></path>
<path fill="#fff" style="fill: var(--color4, #fff)" d="M43.13 26.69h-1.395v3.262h-0.341v-3.262h-1.392v-0.308h3.128v0.308z"></path>
<path fill="#fff" style="fill: var(--color4, #fff)" d="M46.62 28.799c0 0.758-0.504 1.171-1.432 1.163h-1.334v-3.581h0.362v1.287h1.062c0.87 0.018 1.341 0.41 1.341 1.131zM46.279 28.799c0-0.58-0.362-0.844-1.087-0.859h-0.975v1.743h0.975c0.714 0.036 1.087-0.297 1.087-0.884zM47.276 26.382h0.344v3.566h-0.344v-3.566z"></path>
<path fill="#fff" style="fill: var(--color4, #fff)" d="M53.738 28.995c0 0.616-0.438 0.957-1.352 0.957h-1.544v-3.57h1.504c0.783 0 1.268 0.315 1.268 0.91 0.004 0.193-0.061 0.381-0.182 0.53s-0.292 0.252-0.481 0.289c0.11 0.005 0.219 0.031 0.318 0.079s0.189 0.114 0.263 0.197 0.129 0.179 0.165 0.284c0.035 0.105 0.049 0.215 0.041 0.325zM51.176 28.013h1.149c0.609 0 0.95-0.232 0.95-0.678s-0.341-0.67-0.95-0.67h-1.149v1.348zM53.398 28.995c0-0.482-0.294-0.703-0.964-0.703h-1.258v1.395h1.203c0.663-0.018 1.018-0.232 1.018-0.692z"></path>
<path fill="#fff" style="fill: var(--color4, #fff)" d="M60.766 25.168v4.78h-0.362v-4.469h-3.237v4.469h-0.362v-4.78h3.961z"></path>
<path fill="#fff" style="fill: var(--color4, #fff)" d="M65.401 28.248h-3.063c0.019 0.299 0.126 0.585 0.308 0.823s0.429 0.418 0.712 0.516c0.283 0.098 0.588 0.111 0.878 0.036s0.551-0.233 0.752-0.455l0.199 0.225c-0.167 0.191-0.374 0.342-0.607 0.442s-0.485 0.147-0.738 0.138c-0.242 0.012-0.485-0.026-0.711-0.113s-0.433-0.219-0.606-0.389c-0.173-0.17-0.308-0.375-0.398-0.6s-0.131-0.467-0.122-0.71c-0.015-0.233 0.018-0.467 0.096-0.687s0.202-0.421 0.361-0.592c0.16-0.17 0.353-0.306 0.567-0.399s0.445-0.141 0.679-0.141c0.233 0 0.465 0.048 0.679 0.141s0.407 0.229 0.567 0.399c0.16 0.17 0.283 0.372 0.361 0.592s0.111 0.454 0.096 0.687c-0.004 0.018-0.011 0.051-0.011 0.087zM62.339 27.98h2.733c0-0.362-0.144-0.71-0.4-0.966s-0.604-0.4-0.966-0.4c-0.362 0-0.71 0.144-0.966 0.4s-0.4 0.604-0.4 0.966z"></path>
<path fill="#fff" style="fill: var(--color4, #fff)" d="M68.743 26.69h-1.395v3.262h-0.341v-3.262h-1.406v-0.308h3.128l0.014 0.308z"></path>
<path fill="#fff" style="fill: var(--color4, #fff)" d="M72.349 28.248h-3.066c0.019 0.299 0.126 0.585 0.308 0.823s0.429 0.418 0.712 0.516c0.283 0.098 0.588 0.111 0.878 0.037s0.551-0.233 0.752-0.455l0.196 0.225c-0.167 0.191-0.374 0.342-0.607 0.442s-0.485 0.147-0.738 0.137c-0.242 0.012-0.485-0.026-0.711-0.113s-0.433-0.219-0.606-0.389c-0.173-0.17-0.308-0.375-0.398-0.6s-0.131-0.467-0.122-0.71c-0.015-0.233 0.018-0.467 0.097-0.686s0.203-0.421 0.363-0.591c0.16-0.17 0.353-0.305 0.568-0.397s0.446-0.139 0.679-0.138c0.234-0.003 0.466 0.043 0.681 0.135s0.409 0.227 0.569 0.397c0.16 0.17 0.283 0.372 0.361 0.592s0.11 0.454 0.093 0.688c0 0.018-0.007 0.051-0.007 0.087zM69.29 27.98h2.729c-0.018-0.35-0.17-0.679-0.424-0.92s-0.591-0.376-0.941-0.376c-0.35 0-0.687 0.134-0.941 0.376s-0.406 0.571-0.424 0.92z"></path>
<path fill="#fff" style="fill: var(--color4, #fff)" d="M77.028 28.165c0.012 0.237-0.025 0.474-0.109 0.696s-0.213 0.425-0.378 0.595c-0.166 0.17-0.365 0.304-0.585 0.394s-0.456 0.133-0.693 0.127c-0.296 0.009-0.588-0.065-0.844-0.213s-0.466-0.364-0.606-0.625v2.138h-0.341v-4.896h0.326v0.841c0.136-0.266 0.344-0.489 0.6-0.642s0.551-0.231 0.85-0.224c0.238-0.007 0.475 0.035 0.696 0.124s0.422 0.222 0.589 0.392c0.167 0.17 0.297 0.372 0.382 0.595s0.123 0.46 0.112 0.698zM76.684 28.165c-0.011-0.284-0.105-0.559-0.27-0.79s-0.396-0.408-0.661-0.51c-0.266-0.101-0.555-0.123-0.833-0.061s-0.531 0.204-0.728 0.409c-0.197 0.205-0.33 0.463-0.382 0.743s-0.020 0.568 0.091 0.83c0.111 0.262 0.297 0.485 0.534 0.642s0.515 0.241 0.799 0.241c0.196 0.004 0.391-0.032 0.573-0.107s0.346-0.186 0.482-0.328c0.136-0.141 0.242-0.309 0.31-0.493s0.097-0.38 0.086-0.576z"></path>
<path fill="#fff" style="fill: var(--color4, #fff)" d="M81.501 28.194c0.013 0.236-0.024 0.472-0.108 0.694s-0.213 0.422-0.379 0.591-0.366 0.3-0.586 0.386c-0.22 0.087-0.456 0.126-0.692 0.116-1.185 0-1.841-0.921-1.841-2.327 0-1.62 0.587-2.323 1.787-2.61l1.588-0.399 0.054 0.323-1.504 0.362c-1.087 0.254-1.569 0.812-1.591 2.175 0.114-0.32 0.328-0.596 0.609-0.786s0.617-0.286 0.957-0.272c0.23-0.008 0.459 0.032 0.672 0.118s0.406 0.215 0.567 0.379c0.161 0.164 0.285 0.361 0.366 0.576s0.115 0.445 0.102 0.675zM81.139 28.194c0.010-0.19-0.019-0.381-0.086-0.56s-0.168-0.342-0.299-0.48c-0.131-0.138-0.289-0.248-0.465-0.323s-0.364-0.114-0.555-0.114c-0.191 0-0.379 0.039-0.555 0.114s-0.333 0.185-0.465 0.323c-0.131 0.138-0.233 0.302-0.299 0.48s-0.095 0.369-0.086 0.56c-0.010 0.19 0.019 0.381 0.086 0.56s0.168 0.342 0.299 0.48c0.131 0.138 0.289 0.248 0.465 0.323s0.364 0.114 0.555 0.114c0.191 0 0.379-0.039 0.555-0.114s0.333-0.185 0.465-0.323c0.131-0.138 0.233-0.302 0.299-0.48s0.095-0.369 0.086-0.56z"></path>
<path fill="#fff" style="fill: var(--color4, #fff)" d="M85.419 26.382l-1.83 4.063c-0.286 0.656-0.642 0.866-1.113 0.866-0.152 0.004-0.304-0.022-0.446-0.077s-0.271-0.139-0.38-0.245l0.17-0.257c0.084 0.092 0.187 0.164 0.301 0.212s0.238 0.071 0.362 0.067c0.326 0 0.565-0.149 0.786-0.634l0.189-0.431-1.602-3.552h0.362l1.428 3.189 1.428-3.189 0.344-0.011z"></path>
<path fill="#fff" style="fill: var(--color4, #fff)" d="M89.804 28.165c0.013 0.237-0.024 0.474-0.107 0.696s-0.212 0.425-0.377 0.595c-0.165 0.17-0.364 0.304-0.584 0.394s-0.456 0.133-0.693 0.127c-0.295 0.008-0.587-0.066-0.843-0.214s-0.466-0.363-0.607-0.623v2.138h-0.333v-4.897h0.33v0.841c0.136-0.266 0.344-0.489 0.6-0.642s0.551-0.231 0.85-0.224c0.237-0.006 0.473 0.037 0.692 0.127s0.419 0.223 0.584 0.393c0.166 0.17 0.294 0.372 0.379 0.594s0.121 0.458 0.11 0.695zM89.464 28.165c-0.011-0.284-0.105-0.559-0.27-0.79s-0.396-0.409-0.661-0.51-0.555-0.122-0.833-0.061c-0.278 0.062-0.531 0.204-0.728 0.409s-0.33 0.463-0.382 0.743c-0.052 0.28-0.020 0.568 0.091 0.83s0.297 0.485 0.534 0.642c0.237 0.157 0.515 0.241 0.799 0.241 0.196 0.004 0.391-0.032 0.573-0.107s0.345-0.186 0.482-0.328c0.136-0.141 0.242-0.309 0.31-0.493s0.097-0.38 0.086-0.576z"></path>
<path fill="#fff" style="fill: var(--color4, #fff)" d="M93.356 26.69h-2.099v3.262h-0.341v-3.57h2.439v0.308z"></path>
<path fill="#fff" style="fill: var(--color4, #fff)" d="M96.962 28.248h-3.066c0.019 0.299 0.127 0.585 0.308 0.823s0.429 0.418 0.712 0.516 0.588 0.111 0.878 0.037c0.29-0.074 0.552-0.233 0.752-0.455l0.199 0.225c-0.167 0.191-0.375 0.342-0.609 0.442s-0.486 0.147-0.74 0.138c-0.242 0.012-0.485-0.026-0.711-0.113s-0.433-0.219-0.606-0.389c-0.173-0.17-0.308-0.375-0.398-0.6s-0.131-0.467-0.122-0.71c-0.015-0.233 0.018-0.467 0.098-0.687s0.203-0.421 0.364-0.591c0.16-0.17 0.354-0.305 0.569-0.397s0.447-0.138 0.68-0.137c0.234-0.003 0.465 0.043 0.68 0.135s0.408 0.227 0.568 0.397c0.16 0.17 0.283 0.372 0.36 0.593s0.109 0.454 0.091 0.687c0 0.018-0.007 0.051-0.007 0.087zM93.903 27.98h2.729c-0.018-0.35-0.17-0.679-0.424-0.92s-0.591-0.376-0.941-0.376c-0.35 0-0.687 0.134-0.941 0.376s-0.406 0.571-0.424 0.92z"></path>
</symbol>
<symbol id="icon-human-icon" viewBox="0 0 23 32">
<path fill="#ae7c78" style="fill: var(--color1, #ae7c78)" d="M21.671 22.925c-0.422-2.113-2.404-2.472-2.41-2.475v0c-0.021-0.006 0.182 0.045-4.834-1.199v-0.17h3.692c0.761 0 1.38-0.619 1.38-1.38v-7.042c0.062-0.262 0.062-0.534 0-0.796v-2.57c0-0.259-0.21-0.469-0.469-0.469s-0.469 0.21-0.469 0.469v1.345c-0.247-0.148-0.53-0.254-0.835-0.306-0.11-0.489-0.516-0.875-1.030-0.942-0.536-0.070-0.943-0.383-1.208-0.929-0.124-0.256-0.367-0.424-0.651-0.449s-0.552 0.095-0.72 0.324c-0.806 1.097-3.046 3.557-6.915 3.557-0.294 0-0.494-0.014-0.563-0.017-0.711-0.043-1.312 0.525-1.312 1.237v1.077c0 1.722 0.714 3.391 1.96 4.579 0.413 0.394 0.869 0.723 1.354 0.985v0.39h-3.675c-0.244 0-0.443-0.199-0.443-0.443v-10.534c0-3.415 2.785-6.229 6.148-6.229 0.011 0 0.022 0 0.033 0 1.205 0.006 2.597 0.349 3.545 0.872 0.601 0.332 0.972 0.068 1.566 0.068 1.448 0 2.609 1.489 2.748 2.829 0.001 0.020 0.003 0.098 0.003 0.399 0 0.453 0.511 0.487 0.469 0.468 0.259-0 0.469-0.21 0.468-0.469-0-0.083 0.001-0.41-0.007-0.485-0.189-1.865-1.779-3.68-3.682-3.68-0.743 0-0.859 0.188-1.113 0.049-1.075-0.593-2.642-0.981-3.993-0.989-3.892-0.025-7.124 3.217-7.124 7.167v10.534c0 0.761 0.619 1.38 1.38 1.38h3.675v0.17l-4.815 1.193c-0.006 0.002-0.013 0.003-0.019 0.005l-0.352 0.104c-0.011 0.003-0.021 0.007-0.031 0.010-0.628 0.234-1.726 0.852-2.027 2.361-1.427 7.168-1.367 6.862-1.37 6.886-0.172 1.216 0.437 2.188 1.901 2.188h5.070c0.259 0 0.469-0.21 0.469-0.469s-0.21-0.469-0.469-0.469h-1.764v-4.422c0-0.259-0.21-0.469-0.469-0.469s-0.469 0.21-0.469 0.469v4.422h-2.368c-0.623 0-0.984-0.201-0.99-0.855-0.003-0.319-0.015-0.008 1.38-7.099 0.21-1.051 0.973-1.491 1.421-1.661l0.325-0.096 2.765-0.685c3.076 3.623 2.894 3.431 3.071 3.605 1.027 1.001 2.492 0.931 3.456-0.202l2.895-3.401 2.754 0.683c0.080 0.037 1.451 0.278 1.746 1.756 1.383 7.029 1.382 6.778 1.38 7.098-0.005 0.641-0.351 0.855-0.99 0.855h-2.351v-4.422c0-0.259-0.21-0.469-0.469-0.469s-0.469 0.21-0.469 0.469v4.422h-8.666c-0.259 0-0.469 0.21-0.469 0.469s0.21 0.469 0.469 0.469h11.955c1.158 0 1.917-0.637 1.928-1.785 0.004-0.536-0.028-0.28-1.398-7.289zM17.758 9.3c0.392 0.116 0.693 0.374 0.804 0.693v0.537c-0.111 0.319-0.413 0.577-0.804 0.693v-1.923zM17.758 12.271v-0.087c0.293-0.054 0.565-0.158 0.804-0.301v5.817c0 0.244-0.199 0.442-0.443 0.442h-3.692v-0.362c1.988-1.039 3.331-3.12 3.331-5.51zM7.936 16.091c-1.061-1.013-1.669-2.434-1.669-3.901 0.028-1.021-0.068-1.144 0.095-1.298 0.058-0.054 0.135-0.086 0.223-0.081 3.362 0.202 6.253-1.275 8.162-3.75 0.515 0.904 1.269 1.185 1.829 1.259 0.14 0.018 0.245 0.138 0.245 0.278 0 1.297 0 2.386 0 3.674 0 4.665-5.585 6.969-8.885 3.819zM12.642 23.463c-0.653 0.767-1.568 0.765-2.219-0.004l-0.978-1.155h4.184l-0.986 1.158zM14.427 21.367h-5.776l-0.806-0.951 1.38-0.342c0.209-0.052 0.356-0.244 0.356-0.46l0-1.45c1.29 0.43 2.652 0.425 3.91 0.013 0.009 1.498-0.020 1.464 0.026 1.596 0.051 0.146 0.173 0.261 0.33 0.3l1.389 0.344-0.808 0.949z"></path>
</symbol>
<symbol id="icon-instagram-icon" viewBox="0 0 34 32">
<path fill="#d89999" style="fill: var(--color2, #d89999)" d="M9.353 0c-5.158 0-9.353 4.166-9.353 9.287v13.428c0 5.12 4.195 9.285 9.353 9.285h13.609c5.158 0 9.353-4.164 9.353-9.285v-13.428c0-5.121-4.195-9.287-9.353-9.287h-13.609zM9.353 2.751h13.609c3.671 0 6.584 2.892 6.584 6.536v13.428c0 3.644-2.913 6.534-6.584 6.534h-13.609c-3.671 0-6.582-2.889-6.582-6.534v-13.428c0-3.644 2.911-6.536 6.582-6.536zM24.83 5.502c-1.070 0-1.938 0.861-1.938 1.924s0.867 1.924 1.938 1.924c1.071 0 1.938-0.861 1.938-1.924s-0.867-1.924-1.938-1.924zM16.158 7.761c-4.568 0-8.3 3.705-8.3 8.239s3.732 8.239 8.3 8.239c4.568 0 8.302-3.705 8.302-8.239s-3.734-8.239-8.302-8.239zM16.158 10.512c3.070 0 5.531 2.44 5.531 5.488s-2.46 5.488-5.531 5.488c-3.070 0-5.529-2.44-5.529-5.488s2.458-5.488 5.529-5.488z"></path>
</symbol>
<symbol id="icon-logo" viewBox="0 0 97 32">
<path fill="#ffdcdc" style="fill: var(--color3, #ffdcdc)" d="M9.423 16.672c-1.946 2.472-5.799 2.537-7.974 0.323-2.066-2.080-1.812-5.397 0.044-7.459 0.899-2.733 4.853-2.392 6.937-0.725 2.414 1.946 2.961 5.357 0.993 7.861z"></path>
<path fill="#ffdcdc" style="fill: var(--color3, #ffdcdc)" d="M13.095 9.195c-1.914 0-2.7-1.192-2.863-2.642-0.616-1.812 0.21-3.932 2.236-4.462 0.479-0.121 0.979-0.139 1.466-0.054s0.951 0.271 1.361 0.547c0.41 0.276 0.758 0.635 1.020 1.054s0.434 0.889 0.502 1.378c0.064 0.526 0.015 1.059-0.143 1.564s-0.422 0.971-0.774 1.366c-0.352 0.395-0.784 0.711-1.268 0.926s-1.008 0.325-1.537 0.322v0z"></path>
<path fill="#ae7c78" style="fill: var(--color1, #ae7c78)" d="M19.129 30.18l0.12-0.225c-0.801-0.511-1.598-1.029-2.396-1.544-0.684-0.534-1.306-1.141-1.856-1.812-0.747-0.823-1.497-1.649-2.247-2.468-0.065-0.069-0.149-0.149-0.156-0.214-0.742-0.782-1.354-1.677-1.812-2.653-0.48-0.756-0.913-1.54-1.298-2.349-0.040-0.087 0.051-0.239 0.080-0.362 0.161-0.037 0.316-0.096 0.46-0.178 0.474-0.415 0.82-0.957 0.997-1.562 0.765-1.957 1.421-3.94 1.348-6.082-0.019-0.115-0.052-0.227-0.098-0.333-0.102 0.054-0.196 0.122-0.279 0.203-0.507 0.671-1.022 1.337-1.5 2.030-0.711 0.982-1.205 2.104-1.45 3.291-0.109 0.562-0.123 1.138-0.178 1.707-0.032-0.046-0.062-0.095-0.087-0.145-0.304-0.725-0.598-1.45-0.913-2.175-0.044-0.085-0.056-0.182-0.037-0.275s0.071-0.177 0.145-0.236c0.365-0.342 0.696-0.718 0.989-1.124 0.787-1.296 1.359-2.711 1.693-4.19 0.12-0.531 0.199-1.070 0.236-1.613 0-0.167-0.116-0.344-0.178-0.518-0.172 0.064-0.331 0.157-0.471 0.275-0.391 0.471-0.765 0.96-1.12 1.45-0.724 0.913-1.236 1.975-1.5 3.11-0.098 0.551-0.141 1.113-0.214 1.671h-0.036l-0.663-2.624 0.188 0.279c0.074-0.15 0.16-0.294 0.257-0.431 0.431-0.54 0.986-1.015 1.283-1.62 0.437-0.937 0.801-1.906 1.087-2.899 0.111-0.464 0.169-0.94 0.174-1.417 0-0.12-0.083-0.243-0.13-0.362-0.098 0.040-0.236 0.054-0.286 0.127-0.707 0.975-1.45 1.928-2.084 2.943-0.277 0.543-0.503 1.111-0.674 1.696-0.107-0.348-0.087-0.723 0.054-1.058 0.594-1.504 0.993-3.077 1.185-4.683 0.109-1.131 0.159-2.267 0.149-3.403-0.020-0.141-0.062-0.278-0.123-0.406-0.13 0.065-0.304 0.101-0.391 0.207-0.739 0.855-1.273 1.868-1.562 2.961-0.391 1.696-0.217 3.392 0.105 5.074 0.149 0.772 0.308 1.54 0.464 2.32-0.772-0.294-1.45-0.591-2.146-0.808-1.213-0.327-2.485-0.365-3.715-0.112-0.155 0.052-0.298 0.132-0.424 0.236 0.077 0.155 0.176 0.298 0.294 0.424 0.837 0.68 1.879 1.056 2.957 1.066 0.856 0.023 1.711-0.080 2.537-0.305 0.449-0.127 0.507-0.076 0.609 0.362 0.123 0.533 0.246 1.066 0.384 1.595 0.098 0.391 0.217 0.783 0.337 1.221-0.105-0.058-0.163-0.083-0.217-0.12-0.825-0.588-1.84-0.847-2.845-0.725-1.051 0.17-2.084 0.457-3.124 0.7-0.167 0.037-0.33 0.092-0.486 0.163-0.052 0.017-0.098 0.050-0.131 0.095s-0.050 0.098-0.050 0.153c0 0.055 0.017 0.109 0.050 0.153s0.078 0.078 0.131 0.095c0.516 0.261 1.054 0.473 1.609 0.634 0.67 0.118 1.347 0.195 2.026 0.228 1.118 0.108 2.244-0.086 3.262-0.562l1.232 2.936c-1.349-0.51-2.813-0.636-4.23-0.362-1.087 0.236-2.175 0.616-3.233 0.95-0.134 0.044-0.239 0.181-0.362 0.272 0.112 0.12 0.203 0.297 0.341 0.362 0.665 0.297 1.354 0.54 2.059 0.725 0.673 0.102 1.353 0.149 2.033 0.141 1.188 0.006 2.361-0.271 3.421-0.808 0.144-0.072 0.285-0.152 0.42-0.239l2.403 4.063c-0.362-0.141-0.787-0.326-1.214-0.457-1.812-0.558-3.7-0.558-5.578-0.362-0.689 0.065-1.37 0.214-2.051 0.337-0.294 0.054-0.362 0.203-0.178 0.384 0.585 0.622 1.285 1.125 2.062 1.479 1.311 0.533 2.713 0.805 4.128 0.801 1.205 0.070 2.401-0.248 3.411-0.91 0.076-0.032 0.159-0.043 0.24-0.034s0.16 0.038 0.227 0.085c0.786 0.866 1.544 1.758 2.349 2.686l-0.638-0.21c-0.816-0.293-1.671-0.466-2.537-0.515-1.633-0.035-3.253 0.292-4.744 0.957-0.41 0.167-0.837 0.297-1.25 0.449-0.096 0.042-0.188 0.092-0.275 0.149 0.072 0.105 0.123 0.268 0.217 0.305 0.772 0.276 1.533 0.656 2.33 0.754 1.729 0.214 3.476 0.446 5.226 0.112 0.895-0.167 1.794-0.319 2.519-0.942 0.055-0.041 0.113-0.077 0.174-0.109 0.131 0.148 0.274 0.285 0.428 0.41 0.79 0.536 1.58 1.087 2.385 1.584l0.312 0.192c0.019-0.015 0.033-0.035 0.040-0.058v0zM9.344 5.864c-0.362 1.667-0.725 3.353-2.073 4.585 0.525-1.597 1.219-3.134 2.070-4.585h0.004zM8.938 5.741c-0.678 1.558-1.45 3.305-2.175 5.031-0.018-2.073 1.044-3.671 2.171-5.031h0.004zM1.214 9.851c1.354-0.184 2.732 0.006 3.987 0.547l-3.987-0.457v-0.091zM0.768 10.166l4.889 0.594c-1.16 0.696-4.11 0.297-4.889-0.594zM6.118 7.651c-0.649-2.537 0-5.821 1.421-7.129-0.917 2.28-1.058 4.708-1.421 7.129zM7.568 1.232c0.326 0.884-0.395 5.299-1.131 6.665 0.199-2.236 0.344-4.483 1.124-6.665h0.007zM6.194 14.008c0.283 0.131 0.544 0.301 0.816 0.453l-0.036 0.127c-1.857-0.25-3.731-0.341-5.603-0.272 1.587-0.439 3.164-1.073 4.824-0.308zM1.225 14.733c0.602-0.243 4.835-0.134 5.886 0.152-1.142 0.7-4.994 0.573-5.886-0.156v0.004zM7.974 14.371c0.692-2.049 1.57-4.030 2.624-5.919-0.489 2.127-1.015 4.255-2.624 5.904v0.015zM10.511 7.742l-2.722 5.908c-0.087-2.414 1.377-4.132 2.722-5.922v0.014zM1.243 18.977c2.254-1.182 5.85-1.606 7.51-0.504-0.121-0.001-0.242-0.010-0.362-0.025-1.265-0.232-2.515-0.047-3.762 0.141-0.935 0.141-1.87 0.279-2.805 0.406-0.19 0.002-0.381-0.010-0.569-0.036l-0.011 0.018zM2.153 19.209c2.236-0.272 4.447-0.888 6.749-0.471-0.975 0.946-4.607 1.558-6.749 0.471zM12.084 11.471c0.011 0.113 0.011 0.227 0 0.341-0.196 0.968-0.362 1.95-0.616 2.899-0.26 0.882-0.579 1.746-0.957 2.584-0.203 0.34-0.447 0.654-0.725 0.935-0.076 0.098-0.145 0.199-0.217 0.301-0.025-0.145-0.105-0.308-0.062-0.428 0.58-1.592 1.168-3.181 1.765-4.766 0.232-0.627 0.475-1.25 0.725-1.877l0.087 0.011zM11.482 11.888c-0.743 1.95-1.482 3.903-2.247 5.911-0.174-2.359 0.826-4.215 2.247-5.911zM11.268 23.37l-7.6-0.536c1.435-0.54 5.853-0.591 7.6 0.536v0zM10.181 24.82c-2.121 0.356-4.3-0.004-6.194-1.022-0.293-0.189-0.568-0.403-0.823-0.641l0.040-0.080c2.914 0.222 5.833 0.447 8.756 0.674 0.062 0 0.116 0.094 0.21 0.178-0.56 0.483-1.249 0.791-1.983 0.888l-0.007 0.004zM15.2 27.545c-2.668 0.181-5.339 0.076-8.082 0.073 2.726-1.192 5.397-1.33 8.082-0.073zM15.001 28.31c-1.283 0.474-2.65 0.682-4.016 0.613-0.58-0.040-1.156-0.101-1.736-0.105-1.030-0.038-2.040-0.292-2.965-0.747 3.106-0.308 6.223 0.065 9.329-0.272 0 0.040 0.018 0.076 0.025 0.112-0.196 0.161-0.41 0.3-0.638 0.413v-0.015z"></path>
<path fill="#ae7c78" style="fill: var(--color1, #ae7c78)" d="M14.32 7.72c-0.294 0.743-0.855 1.044-1.486 0.794-0.299-0.105-0.545-0.322-0.685-0.606s-0.164-0.611-0.065-0.912c0.228-0.594 1.087-1.022 1.66-0.805 0.27 0.137 0.479 0.37 0.585 0.653s0.103 0.596-0.009 0.877v0zM14.037 7.611c0.076-0.213 0.072-0.446-0.009-0.656s-0.235-0.385-0.434-0.493c-0.249-0.056-0.51-0.027-0.741 0.083s-0.418 0.294-0.532 0.522c-0.042 0.115-0.060 0.238-0.053 0.36s0.038 0.242 0.092 0.352c0.054 0.11 0.13 0.208 0.223 0.288s0.201 0.14 0.318 0.177c0.478 0.188 0.91-0.058 1.134-0.634z"></path>
<path fill="#ae7c78" style="fill: var(--color1, #ae7c78)" d="M4.099 6.886c0.1 0.029 0.194 0.079 0.275 0.144s0.149 0.147 0.198 0.239c0.050 0.092 0.080 0.193 0.091 0.297s-0 0.209-0.031 0.309c-0.045 0.123-0.113 0.235-0.202 0.331s-0.195 0.173-0.314 0.227c-0.119 0.054-0.247 0.084-0.377 0.088s-0.26-0.018-0.382-0.065c-0.184-0.088-0.326-0.247-0.394-0.44s-0.057-0.405 0.032-0.59c0.032-0.111 0.087-0.215 0.162-0.303s0.167-0.161 0.271-0.212c0.104-0.051 0.218-0.079 0.334-0.084s0.231 0.016 0.339 0.059v0zM3.99 7.14c-0.074-0.031-0.154-0.046-0.235-0.044s-0.16 0.020-0.233 0.054c-0.073 0.034-0.138 0.083-0.191 0.144s-0.093 0.132-0.117 0.208c-0.059 0.128-0.068 0.274-0.024 0.409s0.136 0.247 0.26 0.316c0.179 0.059 0.373 0.049 0.545-0.028s0.308-0.216 0.383-0.388c0.017-0.069 0.021-0.14 0.011-0.21s-0.034-0.138-0.071-0.199c-0.036-0.061-0.084-0.114-0.141-0.156s-0.122-0.073-0.19-0.090l0.004-0.014z"></path>
<path fill="#ae7c78" style="fill: var(--color1, #ae7c78)" d="M11.543 4.864c0.181-0.417 0.457-0.598 0.725-0.478 0.16 0.084 0.284 0.223 0.351 0.391s0.071 0.355 0.012 0.526c-0.082 0.137-0.212 0.238-0.365 0.284s-0.318 0.032-0.461-0.038c-0.068-0.021-0.13-0.056-0.181-0.105s-0.092-0.108-0.117-0.174c-0.025-0.066-0.035-0.137-0.028-0.207s0.029-0.138 0.066-0.199z"></path>
<path fill="#ae7c78" style="fill: var(--color1, #ae7c78)" d="M3.646 5.11c0.067 0.027 0.129 0.068 0.179 0.12s0.090 0.114 0.116 0.182c0.026 0.068 0.037 0.141 0.033 0.214s-0.023 0.144-0.056 0.209c-0.060 0.135-0.166 0.243-0.299 0.306s-0.284 0.077-0.426 0.038c-0.243-0.098-0.323-0.391-0.196-0.707s0.384-0.471 0.649-0.362z"></path>
<path fill="#ae7c78" style="fill: var(--color1, #ae7c78)" d="M1.355 6.393c0.127-0.362 0.333-0.362 0.486-0.261s0.174 0.272 0.261 0.413c-0.163 0.092-0.343 0.15-0.529 0.17-0.098-0.011-0.17-0.25-0.217-0.323z"></path>
<path fill="#ae7c78" style="fill: var(--color1, #ae7c78)" d="M13.686 4.904c-0.069-0.246-0.17-0.424-0.123-0.489 0.13-0.143 0.282-0.265 0.449-0.362 0.075 0.178 0.116 0.369 0.123 0.562 0 0.098-0.225 0.152-0.449 0.29z"></path>
<path fill="#ae7c78" style="fill: var(--color1, #ae7c78)" d="M19.611 15.969c2.965 0.395 3.824 1.859 3.824 3.378 0 2.131-1.689 3.624-4.498 3.624-0.558 0-1.685-0.058-3.222-0.058-0.877 0-1.812 0.022-2.323 0.058v-0.362c1.272-0.054 1.519-0.246 1.519-1.609v-9.3c0-1.363-0.246-1.555-1.519-1.609v-0.362c0.522 0.036 1.45 0.054 2.287 0.054 1.182 0 2.378-0.036 2.827-0.036 2.624-0.014 3.965 1.203 3.965 2.939 0 1.327-0.75 2.617-2.845 3.262l-0.015 0.022zM16.65 11.699v4.248h1.261c2.204 0 2.747-1.45 2.747-3.070 0-1.837-0.75-2.787-2.628-2.787-1.134 0-1.381 0.319-1.381 1.609zM21.561 19.263c0-1.903-0.96-3.008-3.338-3.008h-1.573v4.737c0 1.308 0.247 1.555 1.406 1.555 2.454 0 3.505-1.163 3.505-3.284z"></path>
<path fill="#ae7c78" style="fill: var(--color1, #ae7c78)" d="M33.663 18.165c0 3.595-1.874 5.074-4.251 5.074s-4.255-1.493-4.255-5.074c0-3.581 1.874-5.096 4.255-5.096s4.251 1.493 4.251 5.096zM26.976 18.165c0 3.349 1.015 4.712 2.436 4.712s2.432-1.352 2.432-4.712c0-3.36-1.008-4.712-2.432-4.712s-2.436 1.355-2.436 4.712v0z"></path>
<path fill="#ae7c78" style="fill: var(--color1, #ae7c78)" d="M40.872 13.345v0.362h-2.773v7.249c0 1.178 0.449 1.591 1.2 1.591s1.297-0.54 1.693-2.004l0.362 0.094c-0.257 1.45-0.917 2.588-2.432 2.588-0.863 0-1.366-0.21-1.776-0.623-0.547-0.558-0.725-1.29-0.725-2.624v-6.259h-1.812v-0.362h1.812v-2.863c0.571 0 1.138-0.089 1.682-0.265v3.128l2.769-0.011z"></path>
<path fill="#ae7c78" style="fill: var(--color1, #ae7c78)" d="M48.11 13.773c0.594 0.602 0.747 1.298 0.747 2.624v5.208c0 0.605 0.149 0.888 0.576 0.888 0.32-0.017 0.621-0.154 0.845-0.384l0.21 0.323c-0.464 0.435-1.075 0.679-1.711 0.685-1.308 0-1.609-0.787-1.609-1.664-0.287 0.51-0.706 0.934-1.213 1.227s-1.083 0.444-1.669 0.437c-1.254 0-2.381-0.631-2.381-2.095s1.145-2.142 3.019-2.928c1.254-0.518 2.243-0.841 2.243-1.591v-1.171c0-1.573-0.768-1.885-1.74-1.885-0.641 0-1.428 0.127-1.856 0.667 0.254 0.063 0.48 0.211 0.639 0.419s0.243 0.464 0.238 0.726c0.006 0.141-0.020 0.282-0.073 0.412s-0.135 0.248-0.238 0.344c-0.103 0.096-0.226 0.169-0.36 0.214s-0.276 0.060-0.416 0.045c-0.642 0-1.015-0.486-1.015-1.163 0-0.547 0.362-0.979 0.877-1.334 0.79-0.482 1.702-0.728 2.628-0.707 1.040 0 1.827 0.275 2.258 0.703zM47.167 17.256c-0.203 0.304-0.616 0.493-1.794 1.087-0.823 0.395-1.812 0.935-1.812 2.381 0 1.123 0.638 1.645 1.501 1.645 0.75 0 1.479-0.395 2.113-1.417l-0.007-3.697z"></path>
<path fill="#ae7c78" style="fill: var(--color1, #ae7c78)" d="M59.33 13.773c0.468 0.511 0.649 1.178 0.649 2.461v5.005c0 1.044 0.395 1.345 1.428 1.345v0.395c-0.428 0-1.428-0.076-2.251-0.076s-1.7 0.058-2.095 0.076v-0.395c0.899 0 1.236-0.301 1.236-1.345v-5.415c0-1.163-0.163-2.175-1.519-2.175-1.573 0-2.624 1.501-2.624 3.414v4.175c0 1.044 0.337 1.345 1.243 1.345v0.395c-0.391 0-1.279-0.076-2.102-0.076s-1.812 0.058-2.251 0.076v-0.395c1.033 0 1.424-0.301 1.424-1.345v-5.864c0-1.124-0.337-1.656-1.424-1.656v-0.391c0.391 0.036 0.787 0.054 1.16 0.054 0.66 0.019 1.318-0.068 1.95-0.257v2.207c0.66-1.685 1.91-2.262 3.193-2.262 0.95 0 1.555 0.257 1.983 0.703z"></path>
<path fill="#ae7c78" style="fill: var(--color1, #ae7c78)" d="M65.344 21.239c0 1.044 0.391 1.345 1.424 1.345v0.395c-0.428 0-1.406-0.076-2.269-0.076s-1.838 0.058-2.265 0.076v-0.395c1.033 0 1.424-0.301 1.424-1.345v-5.864c0-1.124-0.337-1.656-1.424-1.656v-0.391c0.391 0.036 0.787 0.054 1.16 0.054 0.66 0.019 1.318-0.068 1.95-0.257v8.115zM65.572 9.84c0.001 0.237-0.069 0.47-0.2 0.668s-0.319 0.352-0.538 0.443-0.46 0.116-0.693 0.070c-0.233-0.046-0.447-0.16-0.615-0.327s-0.283-0.381-0.329-0.614c-0.047-0.233-0.023-0.474 0.068-0.694s0.244-0.407 0.442-0.539c0.197-0.132 0.429-0.202 0.667-0.202 0.317 0.003 0.62 0.13 0.844 0.353s0.352 0.526 0.356 0.843v0z"></path>
<path fill="#ae7c78" style="fill: var(--color1, #ae7c78)" d="M76.046 21.605c0.428 0.584 0.747 0.906 1.305 0.979v0.395c-0.283 0-0.95-0.076-1.519-0.076-0.787 0-1.682 0.058-2.073 0.076v-0.395c0.362 0 0.576-0.145 0.576-0.362-0.008-0.104-0.047-0.204-0.112-0.286l-2.149-3.146c-0.457-0.638-0.75-0.794-1.406-0.823v3.262c0 1.044 0.337 1.345 1.232 1.345v0.406c-0.391 0-1.29-0.076-2.077-0.076-0.859 0-1.838 0.058-2.265 0.076v-0.395c1.033 0 1.424-0.301 1.424-1.345v-10.703c0-1.124-0.337-1.646-1.424-1.646v-0.395c0.385 0.039 0.772 0.058 1.16 0.058 0.66 0.019 1.319-0.072 1.95-0.268v9.304c0.614-0.049 1.188-0.326 1.609-0.776l1.388-1.45c0.42-0.439 0.594-0.776 0.594-1.033 0-0.457-0.594-0.641-1.381-0.641v-0.362c0.652 0.036 1.573 0.073 2.113 0.073 0.623 0 1.254-0.036 1.631-0.073v0.362c-0.652 0.074-1.252 0.388-1.685 0.881l-2.276 2.396 3.385 4.639z"></path>
<path fill="#ae7c78" style="fill: var(--color1, #ae7c78)" d="M84.23 13.773c0.594 0.602 0.75 1.297 0.75 2.624v5.208c0 0.605 0.149 0.888 0.576 0.888 0.32-0.017 0.621-0.154 0.844-0.384l0.21 0.323c-0.464 0.435-1.075 0.679-1.711 0.685-1.308 0-1.613-0.786-1.613-1.663-0.288 0.513-0.71 0.939-1.22 1.231s-1.091 0.442-1.679 0.432c-1.25 0-2.378-0.631-2.378-2.095s1.145-2.142 3.019-2.928c1.254-0.518 2.24-0.841 2.24-1.591v-1.171c0-1.573-0.768-1.885-1.736-1.885-0.641 0-1.428 0.127-1.856 0.667 0.254 0.063 0.48 0.211 0.639 0.419s0.243 0.464 0.238 0.726c0.006 0.141-0.019 0.282-0.073 0.412s-0.135 0.248-0.238 0.344c-0.103 0.096-0.226 0.169-0.36 0.214s-0.276 0.060-0.416 0.045c-0.642 0-1.015-0.486-1.015-1.163 0-0.547 0.362-0.979 0.877-1.334 0.789-0.482 1.7-0.727 2.624-0.707 1.062 0 1.848 0.275 2.276 0.703zM83.288 17.255c-0.199 0.305-0.613 0.493-1.79 1.087-0.823 0.395-1.812 0.935-1.812 2.381 0 1.124 0.638 1.645 1.497 1.645 0.75 0 1.482-0.395 2.113-1.417l-0.007-3.697z"></path>
<path fill="#ae7c78" style="fill: var(--color1, #ae7c78)" d="M31.637 29.647v1.229h-0.326v-0.928h-3.313v-3.566h0.341v3.262h2.363v-3.262h0.341v3.262l0.594 0.004z"></path>
<path fill="#ae7c78" style="fill: var(--color1, #ae7c78)" d="M35.519 28.995c0 0.616-0.435 0.957-1.352 0.957h-1.548v-3.57h1.504c0.786 0 1.269 0.315 1.269 0.91 0.004 0.192-0.059 0.38-0.18 0.53s-0.291 0.252-0.48 0.289c0.11 0.005 0.219 0.031 0.318 0.079s0.189 0.114 0.263 0.197c0.073 0.083 0.129 0.179 0.165 0.284s0.049 0.215 0.041 0.325v0zM32.982 28.009h1.145c0.609 0 0.95-0.232 0.95-0.678s-0.341-0.67-0.95-0.67h-1.145v1.348zM35.189 28.995c0-0.482-0.294-0.703-0.964-0.703h-1.243v1.395h1.2c0.652-0.018 1.008-0.232 1.008-0.692z"></path>
<path fill="#ae7c78" style="fill: var(--color1, #ae7c78)" d="M39.784 28.248h-3.066c0.019 0.299 0.127 0.585 0.308 0.823s0.429 0.418 0.712 0.516c0.283 0.098 0.588 0.111 0.878 0.036s0.551-0.233 0.752-0.455l0.199 0.225c-0.167 0.191-0.374 0.342-0.607 0.442s-0.485 0.147-0.738 0.138c-0.242 0.012-0.485-0.026-0.711-0.113s-0.433-0.219-0.606-0.389c-0.173-0.17-0.308-0.375-0.398-0.6s-0.131-0.467-0.122-0.71c-0.015-0.233 0.018-0.467 0.096-0.687s0.202-0.421 0.361-0.592 0.353-0.306 0.567-0.399c0.214-0.093 0.445-0.141 0.679-0.141s0.465 0.048 0.679 0.141c0.214 0.093 0.407 0.229 0.567 0.399s0.283 0.372 0.361 0.592c0.079 0.22 0.111 0.454 0.096 0.687 0 0.018-0.007 0.051-0.007 0.087zM36.725 27.98h2.733c0-0.362-0.144-0.71-0.4-0.966s-0.604-0.4-0.966-0.4-0.71 0.144-0.966 0.4c-0.256 0.256-0.4 0.604-0.4 0.966v0z"></path>
<path fill="#ae7c78" style="fill: var(--color1, #ae7c78)" d="M43.13 26.69h-1.395v3.262h-0.341v-3.262h-1.392v-0.308h3.128v0.308z"></path>
<path fill="#ae7c78" style="fill: var(--color1, #ae7c78)" d="M46.62 28.799c0 0.758-0.504 1.171-1.432 1.163h-1.334v-3.581h0.362v1.287h1.062c0.87 0.018 1.341 0.41 1.341 1.131zM46.279 28.799c0-0.58-0.362-0.844-1.087-0.859h-0.975v1.743h0.975c0.714 0.036 1.087-0.297 1.087-0.884zM47.276 26.382h0.344v3.566h-0.344v-3.566z"></path>
<path fill="#ae7c78" style="fill: var(--color1, #ae7c78)" d="M53.738 28.995c0 0.616-0.438 0.957-1.352 0.957h-1.544v-3.57h1.504c0.783 0 1.268 0.315 1.268 0.91 0.004 0.193-0.061 0.381-0.182 0.53s-0.292 0.252-0.481 0.289c0.11 0.005 0.219 0.031 0.318 0.079s0.189 0.114 0.263 0.197 0.129 0.179 0.165 0.284c0.035 0.105 0.049 0.215 0.041 0.325v0zM51.176 28.013h1.149c0.609 0 0.95-0.232 0.95-0.678s-0.341-0.67-0.95-0.67h-1.149v1.348zM53.398 28.995c0-0.482-0.294-0.703-0.964-0.703h-1.258v1.395h1.203c0.663-0.018 1.018-0.232 1.018-0.692z"></path>
<path fill="#ae7c78" style="fill: var(--color1, #ae7c78)" d="M60.766 25.168v4.78h-0.362v-4.469h-3.237v4.469h-0.362v-4.78h3.961z"></path>
<path fill="#ae7c78" style="fill: var(--color1, #ae7c78)" d="M65.401 28.248h-3.063c0.019 0.299 0.126 0.585 0.308 0.823s0.429 0.418 0.712 0.516c0.283 0.098 0.588 0.111 0.878 0.036s0.551-0.233 0.752-0.455l0.199 0.225c-0.167 0.191-0.374 0.342-0.607 0.442s-0.485 0.147-0.738 0.138c-0.242 0.012-0.485-0.026-0.711-0.113s-0.433-0.219-0.606-0.389c-0.173-0.17-0.308-0.375-0.398-0.6s-0.131-0.467-0.122-0.71c-0.015-0.233 0.018-0.467 0.096-0.687s0.202-0.421 0.361-0.592c0.16-0.17 0.353-0.306 0.567-0.399s0.445-0.141 0.679-0.141c0.233 0 0.465 0.048 0.679 0.141s0.407 0.229 0.567 0.399c0.16 0.17 0.283 0.372 0.361 0.592s0.111 0.454 0.096 0.687c-0.004 0.018-0.011 0.051-0.011 0.087zM62.339 27.98h2.733c0-0.362-0.144-0.71-0.4-0.966s-0.604-0.4-0.966-0.4c-0.362 0-0.71 0.144-0.966 0.4s-0.4 0.604-0.4 0.966v0z"></path>
<path fill="#ae7c78" style="fill: var(--color1, #ae7c78)" d="M68.743 26.69h-1.395v3.262h-0.341v-3.262h-1.406v-0.308h3.128l0.014 0.308z"></path>
<path fill="#ae7c78" style="fill: var(--color1, #ae7c78)" d="M72.349 28.248h-3.066c0.019 0.299 0.126 0.585 0.308 0.823s0.429 0.418 0.712 0.516c0.283 0.098 0.588 0.111 0.878 0.037s0.551-0.233 0.752-0.455l0.196 0.225c-0.167 0.191-0.374 0.342-0.607 0.442s-0.485 0.147-0.738 0.137c-0.242 0.012-0.485-0.026-0.711-0.113s-0.433-0.219-0.606-0.389c-0.173-0.17-0.308-0.375-0.398-0.6s-0.131-0.467-0.122-0.71c-0.015-0.233 0.018-0.467 0.097-0.686s0.203-0.421 0.363-0.591c0.16-0.17 0.353-0.305 0.568-0.397s0.446-0.139 0.679-0.138c0.234-0.003 0.466 0.043 0.681 0.135s0.409 0.227 0.569 0.397c0.16 0.17 0.283 0.372 0.361 0.592s0.11 0.454 0.093 0.688c0 0.018-0.007 0.051-0.007 0.087zM69.29 27.98h2.729c-0.018-0.35-0.17-0.679-0.424-0.92s-0.591-0.376-0.941-0.376c-0.35 0-0.687 0.134-0.941 0.376s-0.406 0.571-0.424 0.92v0z"></path>
<path fill="#ae7c78" style="fill: var(--color1, #ae7c78)" d="M77.028 28.165c0.012 0.237-0.025 0.474-0.109 0.696s-0.213 0.425-0.378 0.595c-0.166 0.17-0.365 0.304-0.585 0.394s-0.456 0.133-0.693 0.127c-0.296 0.009-0.588-0.065-0.844-0.213s-0.466-0.364-0.606-0.625v2.138h-0.341v-4.896h0.326v0.841c0.136-0.266 0.344-0.489 0.6-0.642s0.551-0.231 0.85-0.224c0.238-0.007 0.475 0.035 0.696 0.124s0.422 0.222 0.589 0.392c0.167 0.17 0.297 0.372 0.382 0.595s0.123 0.46 0.112 0.698v0zM76.684 28.165c-0.011-0.284-0.105-0.559-0.27-0.79s-0.396-0.408-0.661-0.51-0.555-0.123-0.833-0.061c-0.278 0.062-0.531 0.204-0.728 0.409s-0.33 0.463-0.382 0.743c-0.052 0.28-0.020 0.568 0.091 0.83s0.297 0.485 0.534 0.642c0.237 0.157 0.515 0.241 0.799 0.241 0.196 0.004 0.391-0.032 0.573-0.107s0.346-0.186 0.482-0.328c0.136-0.141 0.242-0.309 0.31-0.493s0.097-0.38 0.086-0.576v0z"></path>
<path fill="#ae7c78" style="fill: var(--color1, #ae7c78)" d="M81.501 28.194c0.013 0.236-0.024 0.472-0.108 0.694s-0.213 0.422-0.379 0.591-0.366 0.3-0.586 0.386c-0.22 0.087-0.456 0.126-0.692 0.116-1.185 0-1.841-0.921-1.841-2.327 0-1.62 0.587-2.323 1.787-2.61l1.588-0.399 0.054 0.323-1.504 0.362c-1.087 0.254-1.569 0.812-1.591 2.175 0.114-0.32 0.328-0.596 0.609-0.786s0.617-0.286 0.957-0.272c0.23-0.008 0.459 0.032 0.672 0.118s0.407 0.215 0.567 0.379c0.161 0.164 0.285 0.361 0.366 0.576s0.115 0.445 0.102 0.675v0zM81.139 28.194c0.010-0.19-0.019-0.381-0.086-0.56s-0.168-0.342-0.299-0.48c-0.131-0.138-0.29-0.248-0.465-0.323s-0.364-0.114-0.555-0.114-0.379 0.039-0.555 0.114c-0.175 0.075-0.333 0.185-0.465 0.323s-0.233 0.302-0.3 0.48c-0.066 0.179-0.095 0.369-0.086 0.56-0.010 0.19 0.019 0.381 0.086 0.56s0.168 0.342 0.3 0.48c0.131 0.138 0.289 0.248 0.465 0.323s0.364 0.114 0.555 0.114 0.379-0.039 0.555-0.114c0.175-0.075 0.333-0.185 0.465-0.323s0.233-0.302 0.299-0.48 0.095-0.369 0.086-0.56v0z"></path>
<path fill="#ae7c78" style="fill: var(--color1, #ae7c78)" d="M85.419 26.382l-1.83 4.063c-0.286 0.656-0.641 0.866-1.113 0.866-0.152 0.004-0.304-0.022-0.446-0.077s-0.271-0.139-0.38-0.245l0.17-0.257c0.084 0.092 0.187 0.164 0.301 0.212s0.238 0.071 0.362 0.067c0.326 0 0.565-0.149 0.786-0.634l0.189-0.431-1.602-3.552h0.362l1.428 3.189 1.428-3.189 0.344-0.011z"></path>
<path fill="#ae7c78" style="fill: var(--color1, #ae7c78)" d="M89.804 28.165c0.013 0.237-0.024 0.474-0.107 0.696s-0.212 0.425-0.377 0.595c-0.165 0.17-0.364 0.304-0.584 0.394s-0.456 0.133-0.693 0.127c-0.295 0.008-0.587-0.066-0.843-0.214s-0.466-0.363-0.607-0.623v2.138h-0.333v-4.897h0.33v0.841c0.136-0.266 0.344-0.489 0.6-0.642s0.551-0.231 0.85-0.224c0.237-0.006 0.473 0.037 0.692 0.127s0.419 0.223 0.584 0.393c0.166 0.17 0.294 0.372 0.378 0.594s0.121 0.458 0.11 0.695v0zM89.464 28.165c-0.011-0.284-0.105-0.559-0.27-0.79s-0.396-0.409-0.661-0.51-0.555-0.122-0.833-0.061c-0.278 0.062-0.531 0.204-0.728 0.409s-0.33 0.463-0.382 0.743c-0.052 0.28-0.020 0.568 0.091 0.83s0.297 0.485 0.534 0.642c0.237 0.157 0.515 0.241 0.799 0.241 0.196 0.004 0.391-0.032 0.573-0.107s0.346-0.186 0.482-0.328c0.136-0.141 0.242-0.309 0.31-0.493s0.097-0.38 0.086-0.576z"></path>
<path fill="#ae7c78" style="fill: var(--color1, #ae7c78)" d="M93.356 26.69h-2.098v3.262h-0.341v-3.57h2.439v0.308z"></path>
<path fill="#ae7c78" style="fill: var(--color1, #ae7c78)" d="M96.962 28.248h-3.066c0.019 0.299 0.126 0.585 0.308 0.823s0.429 0.418 0.712 0.516c0.283 0.098 0.588 0.111 0.878 0.037s0.551-0.233 0.752-0.455l0.199 0.225c-0.167 0.191-0.375 0.342-0.609 0.442s-0.486 0.147-0.74 0.138c-0.242 0.012-0.485-0.026-0.711-0.113s-0.433-0.219-0.606-0.389c-0.173-0.17-0.308-0.375-0.398-0.6s-0.131-0.467-0.122-0.71c-0.015-0.233 0.018-0.467 0.098-0.687s0.203-0.421 0.364-0.591c0.16-0.17 0.354-0.305 0.569-0.397s0.446-0.138 0.68-0.137c0.234-0.003 0.465 0.043 0.68 0.135s0.408 0.227 0.568 0.397c0.16 0.17 0.283 0.372 0.36 0.593s0.109 0.454 0.091 0.687c0 0.018-0.007 0.051-0.007 0.087zM93.903 27.98h2.729c-0.018-0.35-0.17-0.679-0.424-0.92s-0.591-0.376-0.941-0.376c-0.35 0-0.687 0.134-0.941 0.376s-0.406 0.571-0.424 0.92v0z"></path>
</symbol>
<symbol id="icon-order-icon" viewBox="0 0 41 32">
<path fill="#ae7c78" style="fill: var(--color1, #ae7c78)" d="M33.651 24.298h2.567c0.329 0 0.596-0.267 0.596-0.596v-20.54c0-0.329-0.267-0.596-0.596-0.596h-31.771c-0.329 0-0.596 0.267-0.596 0.596v20.54c0 0.329 0.267 0.596 0.596 0.596h26.416c0.329 0 0.596-0.267 0.596-0.596s-0.267-0.596-0.596-0.596h-25.821v-19.349h30.58v19.349h-1.971c-0.329 0-0.596 0.267-0.596 0.596s0.267 0.596 0.596 0.596z"></path>
<path fill="#ae7c78" style="fill: var(--color1, #ae7c78)" d="M40.069 25.674h-0.688v-23.474c0-1.213-0.987-2.2-2.201-2.2h-27.619c-0.329 0-0.596 0.267-0.596 0.596s0.267 0.596 0.596 0.596h27.619c0.557 0 1.009 0.452 1.009 1.009v23.474h-35.715v-23.474c0-0.556 0.453-1.009 1.009-1.009h3.293c0.329 0 0.596-0.267 0.596-0.596s-0.267-0.596-0.596-0.596h-3.293c-1.214 0-2.201 0.987-2.201 2.2v23.474h-0.688c-0.329 0-0.596 0.267-0.596 0.596v3.21c0 1.39 1.131 2.521 2.521 2.521h2.924c0.329 0 0.596-0.267 0.596-0.596s-0.267-0.596-0.596-0.596h-2.924c-0.733 0-1.33-0.596-1.33-1.33v-2.614h14.692l0.32 1.023c0.289 0.924 1.133 1.544 2.1 1.544h4.059c0.968 0 1.811-0.62 2.1-1.544l0.32-1.023h14.692v2.614c0 0.733-0.596 1.33-1.33 1.33h-29.912c-0.329 0-0.596 0.267-0.596 0.596s0.267 0.596 0.596 0.596h29.912c1.39 0 2.521-1.131 2.521-2.521v-3.21c0-0.329-0.267-0.596-0.596-0.596v0zM23.325 27.533c-0.132 0.424-0.519 0.708-0.963 0.708h-4.059c-0.444 0-0.831-0.285-0.963-0.708l-0.209-0.668h6.403l-0.209 0.668z"></path>
<path fill="#ae7c78" style="fill: var(--color1, #ae7c78)" d="M14.957 14.349c0.284 0 0.528-0.2 0.584-0.479l0.722-3.61c0.035-0.175-0.010-0.356-0.123-0.494s-0.282-0.218-0.461-0.218h-4.573c-0.329 0-0.596 0.267-0.596 0.596s0.267 0.596 0.596 0.596h3.847l-0.484 2.419h-4.631l-0.793-4.326c-0.052-0.283-0.298-0.488-0.586-0.488h-1.444c-0.329 0-0.596 0.267-0.596 0.596s0.267 0.596 0.596 0.596h0.948l0.783 4.272v2.513c0 0.329 0.267 0.596 0.596 0.596h0.028c-0.018 0.066-0.028 0.135-0.028 0.207 0 0.443 0.359 0.802 0.802 0.802 0.364 0 0.67-0.242 0.769-0.573 0.023-0.075 0.036-0.155 0.036-0.239 0-0.068-0.009-0.134-0.025-0.197h1.334c-0.003 0.012-0.007 0.024-0.009 0.036-0.012 0.055-0.019 0.112-0.019 0.171 0 0.443 0.359 0.802 0.802 0.802 0.388 0 0.712-0.276 0.786-0.642 0.012-0.055 0.018-0.112 0.018-0.17 0-0.068-0.009-0.134-0.025-0.197h0.184c0.329 0 0.596-0.267 0.596-0.596s-0.267-0.596-0.596-0.596h-4.058v-1.376l5.020-0z"></path>
<path fill="#ae7c78" style="fill: var(--color1, #ae7c78)" d="M23.014 7.014c0-0.329-0.267-0.596-0.596-0.596h-2.567c-0.329 0-0.596 0.267-0.596 0.596v2.567c0 0.329 0.267 0.596 0.596 0.596h2.567c0.329 0 0.596-0.267 0.596-0.596v-2.567zM21.823 8.986h-1.376v-1.376h1.376v1.376z"></path>
<path fill="#ae7c78" style="fill: var(--color1, #ae7c78)" d="M24.986 10.177h5.456c0.329 0 0.596-0.267 0.596-0.596s-0.267-0.596-0.596-0.596h-5.456c-0.329 0-0.596 0.267-0.596 0.596s0.267 0.596 0.596 0.596v0z"></path>
<path fill="#ae7c78" style="fill: var(--color1, #ae7c78)" d="M24.986 7.61h8.665c0.329 0 0.596-0.267 0.596-0.596s-0.267-0.596-0.596-0.596h-8.665c-0.329 0-0.596 0.267-0.596 0.596s0.267 0.596 0.596 0.596z"></path>
<path fill="#ae7c78" style="fill: var(--color1, #ae7c78)" d="M23.014 12.149c0-0.329-0.267-0.596-0.596-0.596h-2.567c-0.329 0-0.596 0.267-0.596 0.596v2.567c0 0.329 0.267 0.596 0.596 0.596h2.567c0.329 0 0.596-0.267 0.596-0.596v-2.567zM21.823 14.121h-1.376v-1.376h1.376v1.376z"></path>
<path fill="#ae7c78" style="fill: var(--color1, #ae7c78)" d="M24.986 15.312h5.456c0.329 0 0.596-0.267 0.596-0.596s-0.267-0.596-0.596-0.596h-5.456c-0.329 0-0.596 0.267-0.596 0.596s0.267 0.596 0.596 0.596v0z"></path>
<path fill="#ae7c78" style="fill: var(--color1, #ae7c78)" d="M24.986 12.745h8.665c0.329 0 0.596-0.267 0.596-0.596s-0.267-0.596-0.596-0.596h-8.665c-0.329 0-0.596 0.267-0.596 0.596s0.267 0.596 0.596 0.596z"></path>
<path fill="#ae7c78" style="fill: var(--color1, #ae7c78)" d="M22.419 16.688h-2.567c-0.329 0-0.596 0.267-0.596 0.596v2.567c0 0.329 0.267 0.596 0.596 0.596h2.567c0.329 0 0.596-0.267 0.596-0.596v-2.567c0-0.329-0.267-0.596-0.596-0.596zM21.823 19.255h-1.376v-1.376h1.376v1.376z"></path>
<path fill="#ae7c78" style="fill: var(--color1, #ae7c78)" d="M24.986 19.255c-0.329 0-0.596 0.267-0.596 0.596s0.267 0.596 0.596 0.596h5.456c0.329 0 0.596-0.267 0.596-0.596s-0.267-0.596-0.596-0.596h-5.456z"></path>
<path fill="#ae7c78" style="fill: var(--color1, #ae7c78)" d="M34.247 17.284c0-0.329-0.267-0.596-0.596-0.596h-8.665c-0.329 0-0.596 0.267-0.596 0.596s0.267 0.596 0.596 0.596h8.665c0.329 0 0.596-0.267 0.596-0.596z"></path>
</symbol>
<symbol id="icon-twitter-icon" viewBox="0 0 42 32">
<path fill="#d89999" style="fill: var(--color2, #d89999)" d="M41.214 3.787c-1.516 0.643-3.145 1.077-4.856 1.273 1.745-1 3.085-2.583 3.717-4.469-1.633 0.926-3.442 1.598-5.369 1.96-1.542-1.57-3.739-2.551-6.171-2.551-4.67 0-8.455 3.617-8.455 8.078 0 0.633 0.074 1.25 0.219 1.841-7.027-0.336-13.257-3.554-17.427-8.441-0.728 1.193-1.145 2.58-1.145 4.061 0 2.803 1.492 5.275 3.761 6.725-1.386-0.041-2.69-0.405-3.83-1.010-0.002 0.034-0.002 0.068-0.002 0.101 0 3.915 2.915 7.179 6.782 7.922-0.709 0.185-1.456 0.282-2.227 0.282-0.545 0-1.074-0.049-1.591-0.144 1.077 3.209 4.199 5.545 7.899 5.611-2.896 2.167-6.541 3.458-10.503 3.458-0.682 0-1.356-0.038-2.018-0.112 3.743 2.292 8.187 3.629 12.962 3.629 15.552 0 24.055-12.309 24.055-22.986 0-0.35-0.008-0.698-0.024-1.044 1.651-1.14 3.084-2.562 4.219-4.183z"></path>
</symbol>
</defs>
</svg>
